<svg width="30" height="32" viewBox="0 0 30 32" fill="none" xmlns="http://www.w3.org/2000/svg">
<path d="M23.7912 15.7164H26.1157C26.6421 15.7164 27.0698 15.3048 27.0698 14.8006V12.5683C27.0698 12.064 26.6421 11.6535 26.1157 11.6535H23.7912C23.2647 11.6535 22.8371 12.064 22.8371 12.5683V14.8006C22.8371 15.3048 23.2647 15.7164 23.7912 15.7164ZM23.8142 12.5903H26.0926V14.7785H23.8142V12.5903ZM23.7912 21.653H26.1157C26.6421 21.653 27.0698 21.2425 27.0698 20.7382V18.5059C27.0698 18.0017 26.6421 17.5912 26.1157 17.5912H23.7912C23.2647 17.5912 22.8371 18.0017 22.8371 18.5059V20.7382C22.8371 21.2425 23.2647 21.653 23.7912 21.653ZM23.8142 18.528H26.0926V20.7161H23.8142V18.528ZM17.1548 15.7164H19.4804C20.0058 15.7164 20.4334 15.3048 20.4334 14.8006V12.5683C20.4334 12.064 20.0058 11.6535 19.4804 11.6535H17.1548C16.6295 11.6535 16.2018 12.064 16.2018 12.5683V14.8006C16.2018 15.3048 16.6295 15.7164 17.1548 15.7164ZM17.1778 12.5903H19.4574V14.7785H17.1778V12.5903ZM6.20876 23.2497H3.88319C3.35784 23.2497 2.92908 23.6601 2.92908 24.1655V26.3978C2.92908 26.9021 3.35784 27.3125 3.88319 27.3125H6.20876C6.7341 27.3125 7.16175 26.9021 7.16175 26.3978V24.1655C7.16175 23.6601 6.7341 23.2497 6.20876 23.2497ZM6.18462 26.3746H3.90621V24.1876H6.18462V26.3746ZM6.20876 11.6535H3.88319C3.35784 11.6535 2.92908 12.064 2.92908 12.5683V14.8006C2.92908 15.3048 3.35784 15.7164 3.88319 15.7164H6.20876C6.7341 15.7164 7.16175 15.3048 7.16175 14.8006V12.5683C7.16175 12.064 6.7341 11.6535 6.20876 11.6535ZM6.18462 14.7785H3.90621V12.5903H6.18462V14.7785ZM17.1548 21.5139H19.4804C20.0058 21.5139 20.4334 21.1034 20.4334 20.5992V18.3669C20.4334 17.8626 20.0058 17.4521 19.4804 17.4521H17.1548C16.6295 17.4521 16.2018 17.8626 16.2018 18.3669V20.5992C16.2018 21.1034 16.6295 21.5139 17.1548 21.5139ZM17.1778 18.389H19.4574V20.5771H17.1778V18.389ZM27.5549 2.1418H25.4673V1.42566C25.4673 0.638896 24.8005 0 23.9821 0H23.7579C22.9382 0 22.2727 0.638896 22.2727 1.42566V2.1418H7.72618V1.42566C7.72618 0.638896 7.06057 0 6.24208 0H6.01795C5.19831 0 4.53269 0.638896 4.53269 1.42566V2.1418H2.44512C1.09669 2.1418 0 3.19448 0 4.48883V29.6563C0 30.9484 1.09437 32 2.44165 32H27.5583C28.9044 32 30 30.9484 30 29.6563V4.48883C30 3.19448 28.9033 2.1418 27.5549 2.1418ZM23.2486 1.42566C23.2486 1.15641 23.4774 0.937929 23.7579 0.937929H23.9821C24.2625 0.937929 24.4902 1.15641 24.4902 1.42566V2.1418H23.2486V1.42566ZM5.50867 1.42566C5.50867 1.15641 5.73746 0.937929 6.01795 0.937929H6.24208C6.52143 0.937929 6.75021 1.15641 6.75021 1.42566V2.1418H5.50867V1.42566ZM29.0229 29.6563C29.0229 30.432 28.3653 31.0621 27.5583 31.0621H2.44165C1.63351 31.0621 0.975973 30.432 0.975973 29.6563V29.653C1.38521 29.9498 1.89449 30.1252 2.44512 30.1252H22.2439C22.8969 30.1252 23.5107 29.8814 23.9729 29.4378L29.0229 24.5903V29.6563ZM23.474 28.5903C23.5131 28.4381 23.5337 28.2803 23.5337 28.117V24.9887C23.5337 24.3983 24.0338 23.9183 24.6488 23.9183H27.9078C28.0779 23.9183 28.2423 23.8985 28.4009 23.8621L23.474 28.5903ZM29.0229 8.84083H8.21473C7.94573 8.84083 7.72618 9.05048 7.72618 9.30979C7.72618 9.568 7.94573 9.77876 8.21473 9.77876H29.0229V21.9112C29.0229 22.5004 28.5228 22.9804 27.9078 22.9804H24.6488C23.4947 22.9804 22.5566 23.8819 22.5566 24.9887V28.117C22.5566 28.7073 22.0566 29.1873 21.4415 29.1873H2.44512C1.63469 29.1873 0.975973 28.555 0.975973 27.7782V9.77876H6.26163C6.53177 9.77876 6.75021 9.568 6.75021 9.30979C6.75021 9.05048 6.53177 8.84083 6.26163 8.84083H0.975973V4.48883C0.975973 3.712 1.63468 3.07972 2.44397 3.07972H4.53269V4.45793C4.53269 5.24359 5.19831 5.88359 6.01795 5.88359C6.28694 5.88359 6.50534 5.67393 6.50534 5.41462C6.50534 5.15531 6.28694 4.94566 6.01795 4.94566C5.73746 4.94566 5.50867 4.72717 5.50867 4.45793V3.07972H22.2727V4.45793C22.2727 5.24359 22.9382 5.88359 23.7579 5.88359C24.0269 5.88359 24.2453 5.67393 24.2453 5.41462C24.2453 5.15531 24.0269 4.94566 23.7579 4.94566C23.4774 4.94566 23.2486 4.72717 23.2486 4.45793V3.07972H27.5549C28.3642 3.07972 29.0229 3.712 29.0229 4.48883V8.84083ZM6.20876 17.4521H3.88319C3.35784 17.4521 2.92908 17.8626 2.92908 18.3669V20.5992C2.92908 21.1034 3.35784 21.5139 3.88319 21.5139H6.20876C6.7341 21.5139 7.16175 21.1034 7.16175 20.5992V18.3669C7.16175 17.8626 6.7341 17.4521 6.20876 17.4521ZM6.18462 20.5771H3.90621V18.389H6.18462V20.5771ZM10.5184 15.7164H12.844C13.3705 15.7164 13.7981 15.3048 13.7981 14.8006V12.5683C13.7981 12.064 13.3705 11.6535 12.844 11.6535H10.5184C9.99309 11.6535 9.56548 12.064 9.56548 12.5683V14.8006C9.56548 15.3048 9.99309 15.7164 10.5184 15.7164ZM10.5426 12.5903H12.821V14.7785H10.5426V12.5903ZM17.1778 26.3746C17.1652 26.1263 16.9514 25.9288 16.6893 25.9288C16.4203 25.9288 16.2018 26.1385 16.2018 26.3978C16.2018 26.9021 16.6295 27.3125 17.1548 27.3125H19.4804C20.0058 27.3125 20.4334 26.9021 20.4334 26.3978V24.1655C20.4334 23.6601 20.0058 23.2497 19.4804 23.2497H17.1548C16.6295 23.2497 16.2018 23.6601 16.2018 24.1655V24.8088C16.2018 25.0681 16.4203 25.2778 16.6893 25.2778C16.9594 25.2778 17.1778 25.0681 17.1778 24.8088V24.1876H19.4574V26.3746H17.1778ZM10.5184 21.5139H12.844C13.3705 21.5139 13.7981 21.1034 13.7981 20.5992V18.3669C13.7981 17.8626 13.3705 17.4521 12.844 17.4521H10.5184C9.99309 17.4521 9.56548 17.8626 9.56548 18.3669V20.5992C9.56548 21.1034 9.99309 21.5139 10.5184 21.5139ZM10.5426 18.389H12.821V20.5771H10.5426V18.389ZM10.5184 27.3125H12.844C13.3705 27.3125 13.7981 26.9021 13.7981 26.3978V24.1655C13.7981 23.6601 13.3705 23.2497 12.844 23.2497H10.5184C9.99309 23.2497 9.56548 23.6601 9.56548 24.1655V26.3978C9.56548 26.9021 9.99309 27.3125 10.5184 27.3125ZM10.5426 24.1876H12.821V26.3746H10.5426V24.1876Z" fill="#303030"/>
</svg>
