<svg width="31" height="31" viewBox="0 0 31 31" fill="none" xmlns="http://www.w3.org/2000/svg">
<g clip-path="url(#clip0)">
<path d="M30.9192 11.8915C30.7163 11.2637 30.1595 10.8179 29.5008 10.7585L20.5534 9.9461L17.0153 1.66492C16.7544 1.05802 16.1603 0.665161 15.5002 0.665161C14.84 0.665161 14.2459 1.05802 13.985 1.66634L10.447 9.9461L1.4981 10.7585C0.840579 10.8193 0.285236 11.2637 0.0811215 11.8915C-0.122993 12.5192 0.0655114 13.2077 0.562907 13.6417L7.32612 19.5731L5.33181 28.358C5.18587 29.004 5.43658 29.6716 5.97253 30.0591C6.26061 30.2672 6.59765 30.3732 6.93752 30.3732C7.23057 30.3732 7.52125 30.2942 7.78213 30.1381L15.5002 25.5253L23.2154 30.1381C23.7799 30.4777 24.4916 30.4467 25.0264 30.0591C25.5626 29.6705 25.813 29.0025 25.6671 28.358L23.6728 19.5731L30.436 13.6429C30.9334 13.2077 31.1233 12.5204 30.9192 11.8915Z" fill="#FFC107"/>
</g>
<defs>
<clipPath id="clip0">
<rect width="31" height="31" fill="white"/>
</clipPath>
</defs>
</svg>
