<svg width="28" height="41" viewBox="0 0 28 41" fill="none" xmlns="http://www.w3.org/2000/svg">
<path d="M13.7591 0C6.1591 0 0 6.27127 0 14.0075C0 19.9047 7.99753 33.4935 11.7976 39.6179C12.2234 40.3026 12.965 40.7172 13.7604 40.7172C14.5562 40.7156 15.2962 40.3013 15.7208 39.6166C19.5221 33.4909 27.5184 19.9046 27.5184 14.0074C27.5183 6.27127 21.3592 0 13.7591 0ZM13.7591 22.5591C9.46101 22.5591 5.97665 19.0127 5.97665 14.637C5.97665 10.2618 9.46093 6.71507 13.7591 6.71507C18.0572 6.71507 21.5415 10.2618 21.5415 14.637C21.5415 19.0127 18.0573 22.5591 13.7591 22.5591Z" fill="#BDBDBD"/>
</svg>
