<svg width="55" height="51" viewBox="0 0 55 51" fill="none" xmlns="http://www.w3.org/2000/svg">
<path d="M52.4384 4.65504H19.9249C19.031 1.95253 16.5198 0 13.5674 0C10.6149 0 8.10373 1.95253 7.20985 4.65504H2.13473C0.955791 4.65504 0 5.62798 0 6.82806C0 8.02815 0.955791 9.00108 2.13473 9.00108H7.20999C8.10387 11.7036 10.615 13.6561 13.5675 13.6561C16.52 13.6561 19.0311 11.7036 19.925 9.00108H52.4386C53.6175 9.00108 54.5733 8.02815 54.5733 6.82806C54.5733 5.62798 53.6175 4.65504 52.4384 4.65504ZM13.5674 9.31009C12.2229 9.31009 11.1291 8.19663 11.1291 6.82806C11.1291 5.4595 12.2229 4.34604 13.5674 4.34604C14.9118 4.34604 16.0057 5.4595 16.0057 6.82806C16.0057 8.19663 14.9118 9.31009 13.5674 9.31009Z" fill="#54E346"/>
<path d="M52.4384 23.2753H47.3632C46.4693 20.5728 43.958 18.6202 41.0056 18.6202C38.0533 18.6202 35.5422 20.5728 34.6483 23.2753H2.13473C0.955791 23.2753 0 24.2482 0 25.4483C0 26.6484 0.955791 27.6213 2.13473 27.6213H34.6483C35.5422 30.3238 38.0535 32.2764 41.0058 32.2764C43.9581 32.2764 46.4694 30.3238 47.3633 27.6213H52.4386C53.6175 27.6213 54.5733 26.6484 54.5733 25.4483C54.5733 24.2482 53.6175 23.2753 52.4384 23.2753ZM41.0058 27.9303C39.6613 27.9303 38.5675 26.8169 38.5675 25.4483C38.5675 24.0797 39.6613 22.9663 41.0058 22.9663C42.3502 22.9663 43.4441 24.0797 43.4441 25.4483C43.4441 26.8169 42.3502 27.9303 41.0058 27.9303Z" fill="#54E346"/>
<path d="M52.4384 41.8955H29.0711C28.1772 39.1931 25.666 37.2405 22.7136 37.2405C19.7611 37.2405 17.2499 39.1931 16.356 41.8955H2.13473C0.955791 41.8955 0 42.8685 0 44.0685C0 45.2686 0.955791 46.2415 2.13473 46.2415H16.356C17.2499 48.944 19.7611 50.8965 22.7136 50.8965C25.666 50.8965 28.1772 48.944 29.0711 46.2415H52.4386C53.6175 46.2415 54.5733 45.2686 54.5733 44.0685C54.5733 42.8685 53.6175 41.8955 52.4384 41.8955ZM22.7136 46.5507C21.3691 46.5507 20.2753 45.4372 20.2753 44.0687C20.2753 42.7001 21.3691 41.5867 22.7136 41.5867C24.058 41.5867 25.1518 42.7 25.1518 44.0685C25.1518 45.4371 24.058 46.5507 22.7136 46.5507Z" fill="#54E346"/>
</svg>
