<svg width="588" height="510" viewBox="0 0 588 510" fill="none" xmlns="http://www.w3.org/2000/svg">
<path d="M557.631 70.5237L554.613 65.5252C529.174 23.3882 483.18 -2.01319 434.688 1.0692C428.455 1.46554 422.248 2.31369 416.124 3.63132C372.035 13.1174 333.671 46.6313 317.77 89.5524C308.418 114.795 305.805 143.858 288.058 163.895C264.961 189.971 225.749 190.79 191.273 189.709C156.798 188.629 117.559 189.55 94.5746 215.73C80.1799 232.125 75.605 255.44 76.7656 277.397C79.839 335.529 120.138 387.508 171.388 413.344C222.638 439.18 282.979 441.494 339.069 430.129C417.645 414.207 492.369 370.484 537.285 302.951C582.2 235.419 593.568 143.413 557.631 70.5237Z" fill="#54E346" fill-opacity="0.5"/>
<path fill-rule="evenodd" clip-rule="evenodd" d="M201.98 52.8934C203.762 54.8311 205.256 56.9817 206.446 59.2751L213.582 59.2473L216.234 70.96L209.806 74.1156C209.723 76.708 209.305 79.3075 208.536 81.8452L213.6 86.9604L207.339 97.1508L200.604 94.7566C198.701 96.5718 196.587 98.0919 194.333 99.3022L194.36 106.568L182.856 109.267L179.755 102.724C177.208 102.639 174.655 102.213 172.162 101.429L167.138 106.585L157.124 100.212L159.478 93.3558C157.694 91.4184 156.202 89.2674 155.012 86.9734L147.874 87.0007L145.222 75.288L151.651 72.1325C151.735 69.5405 152.154 66.9419 152.922 64.4043L147.859 59.2891L154.119 49.0976L160.854 51.4925C162.757 49.6777 164.871 48.1565 167.124 46.9466L167.097 39.6811L178.602 36.981L181.703 43.5255C184.25 43.6098 186.803 44.0361 189.296 44.819L194.32 39.6645L204.332 46.0372L201.98 52.8934ZM187.899 62.4818C181.969 58.7065 174.153 60.5394 170.443 66.5777C166.734 72.6156 168.537 80.5711 174.467 84.3467C180.399 88.1224 188.214 86.2881 191.923 80.2505C195.632 74.2121 193.831 66.2574 187.899 62.4818Z" fill="#8FEC86"/>
<path d="M113.281 66.7736C114.724 68.3438 115.935 70.0862 116.899 71.9443L122.681 71.922L124.83 81.4124L119.622 83.9694C119.554 86.0696 119.216 88.176 118.593 90.2319L122.696 94.3768L117.622 102.634L112.165 100.694C110.623 102.164 108.911 103.396 107.085 104.377L107.106 110.264L97.7845 112.451L95.2721 107.149C93.2086 107.081 91.1401 106.735 89.12 106.1L85.0488 110.277L76.9358 105.114L78.8422 99.5587C77.3974 97.9888 76.1879 96.246 75.2241 94.3872L69.4404 94.4096L67.2916 84.9192L72.5011 82.3625C72.5687 80.2619 72.9081 78.1567 73.5304 76.1004L69.428 71.9558L74.5006 63.698L79.9572 65.6386C81.4994 64.1679 83.2125 62.9356 85.0386 61.9549L85.0163 56.0683L94.3381 53.8805L96.8508 59.1831C98.914 59.2515 100.983 59.5967 103.003 60.2312L107.074 56.0549L115.186 61.2181L113.281 66.7736ZM101.871 74.5424C97.066 71.4838 90.733 72.9686 87.7276 77.8616C84.7221 82.7538 86.1826 89.1996 90.9879 92.2589C95.7946 95.3183 102.126 93.832 105.132 88.9398C108.137 84.0472 106.678 77.6018 101.871 74.5424Z" fill="#8FEC86"/>
<path d="M101.871 74.5423C101.883 74.5232 102.08 74.6357 102.446 74.8699C102.817 75.0961 103.332 75.4914 103.917 76.0826C105.08 77.2345 106.553 79.3726 106.868 82.4225C107.014 83.9261 106.879 85.6354 106.233 87.3072C105.584 88.9624 104.515 90.6249 102.934 91.8607C102.164 92.4981 101.269 93.018 100.303 93.4042C99.3408 93.8045 98.2942 94.0586 97.2153 94.1317C95.0576 94.3266 92.7735 93.762 90.8169 92.5402C88.8804 91.2846 87.381 89.4409 86.6083 87.3807C86.2002 86.3607 85.9662 85.2916 85.899 84.2359C85.8165 83.1817 85.8841 82.1354 86.11 81.1518C86.5092 79.1636 87.5099 77.4568 88.6882 76.1385C89.8817 74.8151 91.3329 73.9439 92.7247 73.4189C95.556 72.3722 98.0892 72.7848 99.6159 73.3447C100.394 73.6214 100.969 73.9197 101.33 74.1593C101.698 74.3924 101.883 74.5232 101.871 74.5423C101.835 74.6115 101.079 74.0754 99.5376 73.5897C98.0238 73.1166 95.5733 72.7999 92.8868 73.8567C91.5662 74.3867 90.1999 75.2388 89.085 76.51C87.9849 77.7771 87.055 79.4021 86.6961 81.2793C86.4901 82.2082 86.4342 83.1947 86.5181 84.1862C86.5871 85.1796 86.8122 86.1845 87.2005 87.1411C87.9346 89.0756 89.3437 90.7978 91.1616 91.9789C93.0004 93.1246 95.138 93.6604 97.1675 93.485C98.182 93.4212 99.1681 93.1873 100.075 92.8159C100.988 92.4581 101.834 91.9756 102.564 91.3804C104.065 90.23 105.093 88.6681 105.731 87.1065C106.365 85.5298 106.52 83.9066 106.41 82.4658C106.168 79.5444 104.816 77.4399 103.735 76.2613C102.631 75.0626 101.826 74.6061 101.871 74.5423Z" fill="#8FEC86"/>
<path d="M113.281 66.7736C113.272 66.7754 113.304 66.6569 113.377 66.4209C113.46 66.1575 113.571 65.808 113.713 65.3612C114.034 64.387 114.493 62.9919 115.088 61.1835L115.13 61.3078C113.042 59.9974 110.301 58.2773 106.987 56.1973L107.191 56.1732C105.963 57.4447 104.598 58.857 103.138 60.3682L103.058 60.4514L102.947 60.4168C101.088 59.8418 99.0301 59.466 96.844 59.4004L96.7152 59.3968L96.6582 59.2775C95.8699 57.6273 95.0169 55.841 94.1295 53.9832L94.3901 54.1104C91.4561 54.8069 88.3427 55.5459 85.0739 56.322L85.2725 56.0672C85.2831 57.8896 85.2948 59.8965 85.3068 61.9538L85.3079 62.1192L85.1635 62.1971C83.4684 63.1097 81.7195 64.3408 80.1493 65.8469L80.0258 65.9651L79.8648 65.9082C78.1721 65.3093 76.3061 64.6493 74.405 63.9766L74.7466 63.8544C73.1566 66.4504 71.442 69.25 69.6846 72.1191L69.6415 71.7371C70.9203 73.0267 72.3248 74.4423 73.7477 75.877L73.8808 76.011L73.8256 76.193C73.2575 78.0698 72.8809 80.1999 72.8154 82.3725L72.8097 82.5664L72.6377 82.6507C71.0067 83.4527 69.2273 84.3275 67.4303 85.2114L67.602 84.8464C68.284 87.8506 69.0146 91.071 69.7554 94.3353L69.4393 94.0806C71.2658 94.073 73.2373 94.0647 75.2226 94.0568L75.4194 94.0561L75.5111 94.233C76.4222 95.9938 77.6302 97.761 79.0758 99.328L79.0776 99.3302L79.0786 99.3312C79.1101 99.4815 79.01 98.9969 79.1491 99.6678L79.1473 99.6735L79.1434 99.6843L79.136 99.7063L79.1207 99.7499L79.091 99.8375L79.0308 100.012L78.9108 100.362L78.6712 101.06L78.193 102.453C77.8748 103.38 77.5577 104.304 77.2423 105.223L77.1078 104.833C79.8488 106.579 82.5538 108.302 85.2194 109.999L84.8205 110.047C86.1914 108.641 87.5491 107.249 88.8935 105.871L89.0297 105.732L89.2142 105.79C91.2034 106.417 93.251 106.76 95.282 106.829L95.4732 106.835L95.5556 107.01C96.4037 108.804 97.239 110.57 98.0638 112.314L97.7151 112.144C100.898 111.4 104.007 110.674 107.039 109.967L106.807 110.264C106.802 108.267 106.798 106.305 106.793 104.378L106.793 104.198L106.949 104.114C108.812 103.117 110.5 101.884 111.973 100.485L112.098 100.366L112.258 100.423C114.128 101.092 115.941 101.74 117.711 102.373L117.393 102.487C119.184 99.5871 120.875 96.8491 122.485 94.2423L122.52 94.5565C121.082 93.0951 119.731 91.7235 118.428 90.4004L118.328 90.2985L118.37 90.1615C119.024 88.0177 119.336 85.942 119.408 83.9622L119.413 83.8296L119.529 83.7734C121.425 82.8514 123.133 82.0205 124.746 81.2358L124.643 81.4559C123.828 77.7765 123.134 74.6412 122.539 71.9555L122.682 72.0704C120.374 72.0625 118.479 72.0564 116.899 72.051H116.835L116.806 71.994C115.835 70.0978 114.895 68.819 114.258 67.9925C113.943 67.603 113.701 67.3033 113.52 67.0799C113.348 66.8738 113.272 66.775 113.281 66.7736C113.289 66.7718 113.386 66.8644 113.561 67.0435C113.738 67.2323 114.006 67.5191 114.341 67.9233C115.008 68.7311 115.982 69.9969 116.991 71.8946L116.898 71.838C118.478 71.8204 120.373 71.7991 122.681 71.7735L122.796 71.7724L122.823 71.8888C123.443 74.5684 124.168 77.6969 125.018 81.368L125.053 81.5197L124.913 81.5885C123.306 82.3855 121.604 83.229 119.715 84.165L119.835 83.9762C119.776 85.9929 119.471 88.1107 118.815 90.3017L118.757 90.0632C120.067 91.379 121.424 92.7431 122.871 94.1966L123.012 94.3385L122.907 94.5111C121.309 97.1251 119.63 99.871 117.852 102.779L117.738 102.966L117.533 102.893C115.76 102.267 113.945 101.626 112.073 100.964L112.358 100.903C110.854 102.342 109.127 103.611 107.221 104.639L107.376 104.376C107.386 106.303 107.395 108.265 107.406 110.262L107.407 110.505L107.174 110.56C104.143 111.275 101.036 112.008 97.8546 112.758L97.6135 112.815L97.5056 112.588C96.6777 110.845 95.8399 109.081 94.9886 107.289L95.2618 107.469C93.1753 107.402 91.0707 107.052 89.0262 106.41L89.3465 106.329C88.0036 107.708 86.6473 109.101 85.2775 110.508L85.0962 110.694L84.8782 110.555C82.2115 108.859 79.5055 107.138 76.7638 105.394L76.5436 105.254L76.6292 105.005C76.9446 104.085 77.2614 103.162 77.5793 102.235L78.0575 100.842L78.2971 100.144L78.4171 99.7939L78.4773 99.6191L78.507 99.5316L78.5222 99.488L78.5296 99.466L78.5332 99.4552L78.5353 99.4494C78.6744 100.12 78.5732 99.6346 78.604 99.7838L78.6033 99.7827L78.6011 99.7805C77.1145 98.1689 75.8728 96.3515 74.937 94.5414L75.2251 94.7176C73.2398 94.7248 71.2682 94.7316 69.4418 94.7381L69.1834 94.7392L69.1254 94.483C68.3877 91.218 67.66 87.9969 66.9811 84.9919L66.9241 84.7394L67.1535 84.6269C68.9519 83.7456 70.7323 82.8737 72.3644 82.0738L72.1867 82.3516C72.2575 80.1203 72.648 77.9336 73.2352 76.0078L73.3127 76.3234C71.8926 74.8858 70.4913 73.4669 69.2149 72.1745L69.0429 72.0005L69.1714 71.7923C70.9362 68.9279 72.6579 66.1334 74.2549 63.5417L74.3781 63.3414L74.5965 63.4196C76.4951 64.0984 78.359 64.7646 80.0495 65.3688L79.7657 65.43C81.3793 63.893 83.1746 62.6395 84.9129 61.7132L84.7695 61.956C84.7663 59.8987 84.7632 57.8918 84.7603 56.0694L84.76 55.8601L84.9589 55.8139C88.2316 55.0551 91.3485 54.332 94.286 53.6507L94.4672 53.6089L94.5469 53.7782C95.4229 55.6417 96.265 57.4331 97.043 59.0887L96.8578 58.9659C99.0835 59.0476 101.175 59.4458 103.059 60.0457L102.868 60.0943C104.34 58.5969 105.717 57.1968 106.957 55.9368L107.051 55.841L107.161 55.9127C110.45 58.0356 113.169 59.7913 115.241 61.1284L115.312 61.1745L115.284 61.2531C114.65 63.0279 114.161 64.3971 113.819 65.3533C113.655 65.7997 113.526 66.1485 113.43 66.4115C113.339 66.6497 113.29 66.7718 113.281 66.7736Z" fill="#8FEC86"/>
<path fill-rule="evenodd" clip-rule="evenodd" d="M189.424 141.87C192.641 145.37 195.34 149.254 197.489 153.397L210.379 153.347L215.169 174.502L203.559 180.202C203.409 184.884 202.655 189.58 201.265 194.163L210.412 203.403L199.102 221.808L186.938 217.484C183.5 220.762 179.683 223.508 175.612 225.694L175.661 238.817L154.881 243.693L149.28 231.874C144.68 231.722 140.069 230.951 135.566 229.536L126.49 238.848L108.405 227.337L112.655 214.954C109.434 211.455 106.738 207.57 104.589 203.426L91.6962 203.475L86.9061 182.32L98.5191 176.62C98.6695 171.938 99.4266 167.245 100.813 162.661L91.6686 153.422L102.976 135.014L115.14 139.34C118.578 136.062 122.396 133.315 126.467 131.129L126.418 118.006L147.198 113.129L152.799 124.95C157.398 125.102 162.01 125.872 166.513 127.286L175.588 117.976L193.671 129.486L189.424 141.87ZM163.991 159.189C153.279 152.37 139.161 155.68 132.462 166.587C125.762 177.492 129.018 191.862 139.729 198.681C150.444 205.501 164.559 202.188 171.258 191.283C177.958 180.376 174.705 166.008 163.991 159.189Z" fill="#81E278"/>
<path d="M398.146 503.436L232.244 502.655C212.291 502.562 196.188 486.024 196.273 465.713L198.031 42.3351C198.115 22.013 214.371 5.6102 234.336 5.70352L400.239 6.48358C420.192 6.57762 436.294 23.1151 436.21 43.4258L434.452 466.805C434.367 487.127 418.111 503.53 398.146 503.436Z" fill="#445964"/>
<path d="M400.001 21.0952L367.836 20.9442C363.523 20.9248 360.009 24.6297 359.992 29.2189L359.965 35.1585C359.948 39.7488 356.434 43.4538 352.121 43.4332L289.423 43.1381C285.111 43.1187 281.629 39.3805 281.648 34.7899L281.673 28.8511C281.691 24.2608 278.209 20.5227 273.896 20.5028L262.583 20.4492L234.431 20.3169C220.449 20.2517 209.064 31.7389 209.005 45.9719L207.289 459.219C207.229 473.446 218.507 485.027 232.481 485.093L398.052 485.87C412.032 485.936 423.418 474.449 423.478 460.216L425.194 46.9674C425.252 32.7427 413.976 21.1615 400.001 21.0952Z" fill="#F9F9F9"/>
<path d="M351.59 222.331H286.607C279.874 222.331 274.416 216.775 274.416 209.922V143.773C274.416 136.919 279.874 131.363 286.607 131.363H351.59C358.323 131.363 363.781 136.919 363.781 143.773V209.922C363.781 216.775 358.323 222.331 351.59 222.331Z" fill="#54E346"/>
<path d="M250.836 164.454L252.991 168.898L257.809 169.611L254.322 173.07L255.145 177.954L250.836 175.648L246.527 177.954L247.35 173.07L243.864 169.611L248.681 168.898L250.836 164.454Z" fill="#54E346"/>
<path d="M390.06 120.409L391.726 123.845L395.452 124.396L392.756 127.071L393.392 130.848L390.06 129.065L386.728 130.848L387.364 127.071L384.668 124.396L388.394 123.845L390.06 120.409Z" fill="#54E346"/>
<path d="M386.784 202.842L388.229 204.837L390.662 204.755L389.245 206.77L390.073 209.101L387.752 208.352L385.831 209.873L385.813 207.395L383.799 206.005L386.108 205.222L386.784 202.842Z" fill="#54E346"/>
<path d="M249.181 134.956C247.925 134.956 246.902 133.915 246.902 132.636C246.902 131.357 247.925 130.316 249.181 130.316C250.438 130.316 251.46 131.357 251.46 132.636C251.46 133.915 250.438 134.956 249.181 134.956ZM249.181 131.587C248.613 131.587 248.151 132.057 248.151 132.636C248.151 133.214 248.613 133.685 249.181 133.685C249.749 133.685 250.212 133.214 250.212 132.636C250.212 132.057 249.749 131.587 249.181 131.587Z" fill="#54E346"/>
<path d="M378.019 167.022C376.762 167.022 375.74 165.982 375.74 164.703C375.74 163.423 376.762 162.383 378.019 162.383C379.276 162.383 380.298 163.423 380.298 164.703C380.298 165.982 379.276 167.022 378.019 167.022ZM378.019 163.654C377.451 163.654 376.988 164.124 376.988 164.703C376.988 165.281 377.451 165.751 378.019 165.751C378.587 165.751 379.049 165.281 379.049 164.703C379.049 164.124 378.587 163.654 378.019 163.654Z" fill="#54E346"/>
<path d="M348.279 118.062C347.021 118.062 346 117.021 346 115.742C346 114.462 347.021 113.422 348.279 113.422C349.536 113.422 350.558 114.462 350.558 115.742C350.558 117.021 349.536 118.062 348.279 118.062ZM348.279 114.693C347.71 114.693 347.248 115.163 347.248 115.742C347.248 116.32 347.71 116.79 348.279 116.79C348.847 116.79 349.309 116.32 349.309 115.742C349.309 115.163 348.847 114.693 348.279 114.693Z" fill="#54E346"/>
<path d="M238.437 208.041C238.437 208.972 237.697 209.726 236.783 209.726C235.869 209.726 235.128 208.972 235.128 208.041C235.128 207.111 235.869 206.357 236.783 206.357C237.697 206.357 238.437 207.111 238.437 208.041Z" fill="#54E346"/>
<path d="M314.75 232.082C314.75 233.013 314.008 233.767 313.095 233.767C312.181 233.767 311.44 233.013 311.44 232.082C311.44 231.152 312.181 230.398 313.095 230.398C314.008 230.398 314.75 231.152 314.75 232.082Z" fill="#54E346"/>
<path d="M298.7 98.6486C298.7 99.5789 297.96 100.333 297.046 100.333C296.132 100.333 295.391 99.5789 295.391 98.6486C295.391 97.7182 296.132 96.9641 297.046 96.9641C297.96 96.9641 298.7 97.7182 298.7 98.6486Z" fill="#54E346"/>
<path d="M392.545 403.546H245.652C242.15 403.546 239.311 400.657 239.311 397.092V396.779C239.311 393.214 242.15 390.325 245.652 390.325H392.545C396.047 390.325 398.886 393.214 398.886 396.779V397.092C398.886 400.657 396.047 403.546 392.545 403.546Z" fill="#DFDFDF"/>
<path d="M317.635 403.546H245.652C242.15 403.546 239.311 400.657 239.311 397.092V396.779C239.311 393.214 242.15 390.325 245.652 390.325H317.635C321.137 390.325 323.976 393.214 323.976 396.779V397.092C323.976 400.657 321.137 403.546 317.635 403.546Z" fill="#54E346"/>
<path d="M308.546 436.028C308.546 438.735 306.692 440.852 302.87 440.852C300.611 440.852 298.467 440.055 297.26 438.804L298.042 437.508C299.047 438.576 300.836 439.35 302.847 439.35C305.506 439.35 306.915 438.03 306.915 436.096C306.915 434.049 305.663 432.775 301.685 432.775H298.355L299.159 424.79H307.72V426.246H300.568L300.031 431.319H302.042C306.759 431.319 308.546 433.208 308.546 436.028Z" fill="#54E346"/>
<path d="M321.083 436.028C321.083 438.735 319.228 440.852 315.407 440.852C313.148 440.852 311.003 440.055 309.796 438.804L310.579 437.508C311.584 438.576 313.373 439.35 315.383 439.35C318.043 439.35 319.451 438.03 319.451 436.096C319.451 434.049 318.2 432.775 314.221 432.775H310.891L311.696 424.79H320.256V426.246H313.104L312.568 431.319H314.579C319.295 431.319 321.083 433.208 321.083 436.028Z" fill="#54E346"/>
<path d="M322.668 428.999C322.668 426.406 324.099 424.676 326.2 424.676C328.278 424.676 329.73 426.382 329.73 428.999C329.73 431.615 328.278 433.321 326.2 433.321C324.099 433.321 322.668 431.592 322.668 428.999ZM328.613 428.999C328.613 426.928 327.652 425.699 326.2 425.699C324.724 425.699 323.785 426.951 323.785 428.999C323.785 431.047 324.724 432.298 326.2 432.298C327.652 432.298 328.613 431.069 328.613 428.999ZM335.676 424.79H336.994L326.311 440.715H324.993L335.676 424.79ZM332.256 436.506C332.256 433.913 333.709 432.184 335.787 432.184C337.888 432.184 339.318 433.913 339.318 436.506C339.318 439.1 337.888 440.829 335.787 440.829C333.709 440.829 332.256 439.1 332.256 436.506ZM338.201 436.506C338.201 434.459 337.262 433.208 335.787 433.208C334.334 433.208 333.374 434.436 333.374 436.506C333.374 438.576 334.334 439.805 335.787 439.805C337.262 439.805 338.201 438.554 338.201 436.506Z" fill="#54E346"/>
<path d="M587.372 503.063C587.372 503.246 455.874 503.395 293.7 503.395C131.47 503.395 0 503.246 0 503.063C0 502.88 131.47 502.732 293.7 502.732C455.874 502.732 587.372 502.88 587.372 503.063Z" fill="#263138"/>
<path d="M229.209 488.555L232.795 502.537L272.991 502.162C272.991 502.162 267.495 497.934 247.297 498.241L245.337 488.555H229.209Z" fill="#FFBD9C"/>
<path d="M185.387 330.604L155.236 333.5L142.986 337.029C137.752 338.537 132.962 341.332 129.037 345.167L89.5673 383.73L82.3629 323.822L62.6433 325.568L65.934 402.682C68.8736 412.064 77.4341 418.643 87.4277 418.669C93.344 418.684 98.9949 416.141 103.306 412.016L131.41 385.127L128.619 420.61L118.958 442.666L187.947 482.325C187.947 482.325 196.05 441.496 200.401 413.251C203.92 390.401 205.709 340.631 205.709 340.631L185.387 330.604Z" fill="#54E346"/>
<path d="M203.913 339.925C203.913 339.925 219.168 345.681 222.857 357.842C226.128 368.627 237.041 429.273 237.041 429.273L247.869 493.461L225.196 494.339L199.089 384.944L203.913 339.925Z" fill="#54E346"/>
<path d="M128.046 419.037C127.867 419.02 128.877 406.732 130.303 391.594C131.728 376.452 133.029 364.195 133.207 364.212C133.386 364.229 132.376 376.515 130.95 391.658C129.525 406.795 128.224 419.055 128.046 419.037Z" fill="#263138"/>
<path d="M178.258 388.866C178.279 388.876 178.21 389.081 178.058 389.466C177.872 389.919 177.644 390.471 177.369 391.138C177.073 391.867 176.686 392.747 176.155 393.728C175.635 394.714 175.097 395.87 174.339 397.053C173.974 397.655 173.593 398.284 173.197 398.937C172.795 399.589 172.314 400.225 171.849 400.907C170.94 402.287 169.813 403.641 168.658 405.091C166.254 407.908 163.391 410.817 160.088 413.518C156.755 416.182 153.322 418.362 150.081 420.108C148.432 420.925 146.882 421.736 145.355 422.325C144.597 422.632 143.88 422.964 143.165 423.216C142.45 423.46 141.762 423.695 141.103 423.921C139.8 424.404 138.572 424.676 137.511 424.969C136.452 425.273 135.522 425.457 134.758 425.585C134.057 425.707 133.478 425.808 133.002 425.891C132.6 425.953 132.387 425.975 132.383 425.952C132.379 425.93 132.585 425.864 132.978 425.759C133.446 425.644 134.015 425.504 134.704 425.333C135.457 425.168 136.373 424.948 137.417 424.611C138.463 424.286 139.673 423.986 140.957 423.477C141.606 423.24 142.284 422.994 142.988 422.737C143.693 422.476 144.399 422.134 145.146 421.819C146.65 421.214 148.178 420.392 149.803 419.568C152.997 417.809 156.384 415.636 159.684 412.999C162.952 410.326 165.798 407.461 168.204 404.692C169.36 403.267 170.493 401.939 171.413 400.585C171.882 399.916 172.37 399.293 172.78 398.654C173.184 398.014 173.574 397.397 173.947 396.807C174.725 395.65 175.287 394.518 175.834 393.554C176.392 392.596 176.81 391.737 177.14 391.028C177.459 390.383 177.722 389.85 177.938 389.413C178.128 389.046 178.237 388.858 178.258 388.866Z" fill="#263138"/>
<path d="M136.051 425.262C133.85 424.623 132.71 421.874 133.273 419.616C133.836 417.359 135.702 415.639 137.765 414.631C139.828 413.623 142.11 413.204 144.333 412.652C153.975 410.257 162.949 405.133 169.983 398.004C170.635 397.343 171.565 396.611 172.373 397.06C173.458 397.663 172.778 399.351 171.973 400.306C162.287 411.807 149.477 420.556 135.349 425.318L136.051 425.262Z" fill="black" fill-opacity="0.2"/>
<path d="M204.931 410.815C204.888 410.826 204.726 410.361 204.471 409.51C204.214 408.658 203.87 407.42 203.463 405.884C202.65 402.812 201.601 398.548 200.554 393.813C199.508 389.075 198.662 384.764 198.106 381.634C197.827 380.068 197.618 378.799 197.491 377.918C197.364 377.038 197.314 376.547 197.359 376.538C197.402 376.53 197.536 377.004 197.74 377.869C197.964 378.878 198.237 380.103 198.557 381.542C199.264 384.802 200.178 389.011 201.188 393.668C202.233 398.314 203.178 402.516 203.91 405.771C204.225 407.211 204.494 408.437 204.716 409.446C204.896 410.317 204.975 410.803 204.931 410.815Z" fill="#263138"/>
<path d="M66.1309 331.328C65.9522 331.343 65.6938 329.988 65.554 328.301C65.4138 326.614 65.4457 325.234 65.6248 325.219C65.8035 325.203 66.0619 326.558 66.2017 328.246C66.3415 329.932 66.31 331.312 66.1309 331.328Z" fill="#263138"/>
<path d="M71.9008 331.514C71.7214 331.523 71.5037 330.08 71.4141 328.292C71.3246 326.502 71.3975 325.045 71.5766 325.036C71.7561 325.027 71.9741 326.469 72.0633 328.258C72.1529 330.046 72.0799 331.504 71.9008 331.514Z" fill="#263138"/>
<path d="M77.6358 331.138C77.4563 331.148 77.2224 329.542 77.113 327.55C77.0036 325.558 77.0606 323.935 77.2397 323.925C77.4188 323.915 77.6531 325.521 77.7625 327.513C77.8719 329.505 77.8149 331.128 77.6358 331.138Z" fill="#263138"/>
<path d="M88.7242 392.933C88.5458 392.914 88.6399 390.537 88.9351 387.625C89.2303 384.712 89.6144 382.366 89.7931 382.385C89.9715 382.404 89.877 384.779 89.5818 387.693C89.287 390.605 88.9029 392.951 88.7242 392.933Z" fill="#263138"/>
<path d="M228.925 487.655C229.102 487.624 229.494 489.065 229.801 490.873C230.107 492.681 230.213 494.172 230.036 494.203C229.859 494.235 229.467 492.794 229.16 490.985C228.853 489.177 228.748 487.686 228.925 487.655Z" fill="#263138"/>
<path d="M236.381 487.65C236.558 487.62 236.919 488.926 237.187 490.567C237.455 492.208 237.529 493.563 237.352 493.593C237.175 493.622 236.814 492.317 236.546 490.675C236.278 489.035 236.204 487.68 236.381 487.65Z" fill="#263138"/>
<path d="M243.455 486.919C243.637 486.905 243.895 488.391 244.199 490.216C244.499 492.042 244.734 493.532 244.557 493.579C244.387 493.625 243.864 492.185 243.558 490.326C243.248 488.468 243.279 486.932 243.455 486.919Z" fill="#263138"/>
<path d="M216.156 347.401C216.156 347.523 214.572 347.426 212.114 347.949C209.675 348.454 206.343 349.741 203.464 352.296C200.586 354.854 198.884 358.042 198.062 360.434C197.221 362.842 197.101 364.452 196.982 364.435C196.942 364.432 196.932 364.028 197.002 363.304C197.071 362.58 197.252 361.536 197.626 360.286C198.353 357.798 200.049 354.453 203.037 351.797C206.024 349.144 209.509 347.886 212.029 347.49C213.297 347.281 214.337 347.24 215.052 347.269C215.766 347.295 216.157 347.36 216.156 347.401Z" fill="#263138"/>
<path d="M225.479 373.492C225.509 373.575 224.077 374.208 221.718 375.116C219.359 376.025 216.07 377.198 212.397 378.366C208.722 379.534 205.361 380.474 202.913 381.093C200.466 381.713 198.935 382.023 198.913 381.937C198.89 381.846 200.379 381.376 202.792 380.642C205.382 379.842 208.621 378.841 212.203 377.734C215.766 376.57 218.988 375.517 221.565 374.675C223.96 373.881 225.447 373.404 225.479 373.492Z" fill="#F9F9F9"/>
<path d="M235.096 417.737C235.113 417.826 233.617 418.232 231.185 418.816C228.753 419.4 225.386 420.161 221.658 420.962C217.93 421.763 214.548 422.452 212.091 422.918C209.635 423.385 208.106 423.629 208.086 423.54C208.066 423.451 209.559 423.046 211.991 422.462C214.422 421.878 217.793 421.116 221.524 420.314C225.255 419.513 228.64 418.823 231.096 418.357C233.552 417.89 235.079 417.647 235.096 417.737Z" fill="#F9F9F9"/>
<path d="M245.998 473.119C245.996 473.214 244.564 473.254 242.253 473.315C239.942 473.376 236.752 473.476 233.233 473.68C229.714 473.888 226.534 474.161 224.231 474.371C221.928 474.58 220.501 474.708 220.488 474.613C220.476 474.527 221.883 474.234 224.179 473.906C226.474 473.576 229.662 473.228 233.196 473.019C236.729 472.814 239.935 472.788 242.252 472.847C244.57 472.906 246 473.032 245.998 473.119Z" fill="#F9F9F9"/>
<path d="M145.923 421.053C145.879 421.135 144.896 420.688 143.329 419.929C141.535 419.055 139.482 418.054 137.217 416.95C134.943 415.86 132.884 414.873 131.085 414.01C129.517 413.253 128.555 412.761 128.59 412.675C128.624 412.592 129.649 412.932 131.268 413.581C132.887 414.229 135.097 415.194 137.496 416.352C139.893 417.512 142.024 418.646 143.54 419.513C145.057 420.38 145.964 420.974 145.923 421.053Z" fill="#F9F9F9"/>
<path d="M196.175 429.731C196.156 429.772 195.631 429.567 194.701 429.162C193.651 428.697 192.336 428.114 190.772 427.42C187.458 425.945 182.867 423.94 177.746 421.854C172.621 419.769 167.938 417.998 164.538 416.741C162.936 416.145 161.588 415.645 160.513 415.245C159.564 414.885 159.046 414.666 159.06 414.623C159.074 414.579 159.618 414.716 160.593 415C161.567 415.282 162.967 415.725 164.689 416.299C168.132 417.445 172.851 419.15 177.987 421.239C183.12 423.33 187.693 425.408 190.963 426.994C192.598 427.787 193.912 428.449 194.809 428.929C195.707 429.407 196.194 429.69 196.175 429.731Z" fill="#F9F9F9"/>
<path d="M200.088 393.615C200.084 393.638 199.842 393.616 199.385 393.553C198.857 393.473 198.197 393.373 197.389 393.249C195.57 392.95 193.091 392.541 190.067 392.042C183.886 391.015 175.344 389.623 165.892 388.206C156.436 386.791 147.862 385.619 141.652 384.791C138.615 384.382 136.126 384.047 134.299 383.8C133.491 383.682 132.831 383.584 132.303 383.507C131.847 383.432 131.609 383.382 131.611 383.359C131.614 383.337 131.857 383.343 132.317 383.374C132.849 383.419 133.514 383.475 134.328 383.545C136.073 383.705 138.595 383.971 141.708 384.327C147.935 385.036 156.525 386.136 165.987 387.551C175.445 388.969 183.982 390.435 190.145 391.581C193.227 392.153 195.717 392.638 197.434 392.996C198.233 393.169 198.886 393.31 199.408 393.422C199.858 393.527 200.093 393.593 200.088 393.615Z" fill="#F9F9F9"/>
<path d="M197.263 355.469C197.236 355.65 183.725 353.744 167.087 351.214C150.444 348.682 136.978 346.485 137.005 346.304C137.031 346.123 150.54 348.028 167.183 350.559C183.82 353.09 197.289 355.288 197.263 355.469Z" fill="#F9F9F9"/>
<path d="M126.485 388.83C126.4 388.865 125.688 387.278 124.567 384.701C123.372 381.962 121.855 378.486 120.177 374.641C118.463 370.811 116.913 367.349 115.693 364.623C114.542 362.06 113.847 360.465 113.93 360.423C113.97 360.403 114.198 360.774 114.576 361.464C114.955 362.153 115.478 363.162 116.107 364.419C117.366 366.933 119.034 370.443 120.77 374.369C122.505 378.296 123.978 381.894 124.991 384.52C125.498 385.833 125.893 386.902 126.149 387.647C126.405 388.393 126.527 388.812 126.485 388.83Z" fill="#F9F9F9"/>
<path d="M99.5868 415.625C99.4109 415.662 97.6896 407.987 95.7425 398.482C93.7951 388.975 92.3594 381.24 92.535 381.203C92.7109 381.165 94.4318 388.839 96.3793 398.347C98.326 407.851 99.7624 415.588 99.5868 415.625Z" fill="#F9F9F9"/>
<path d="M88.4715 373.92C88.509 374.099 83.2683 375.394 76.7672 376.811C70.264 378.229 64.9635 379.234 64.926 379.055C64.8881 378.876 70.1277 377.582 76.631 376.164C83.1321 374.746 88.434 373.742 88.4715 373.92Z" fill="#F9F9F9"/>
<path d="M84.5562 339.162C84.5693 339.251 83.3942 339.517 81.4782 339.849C79.5623 340.181 76.9048 340.572 73.9588 340.913C71.0117 341.254 68.3355 341.48 66.3955 341.594C64.4551 341.708 63.2513 341.717 63.2445 341.627C63.2375 341.534 64.4278 341.361 66.3548 341.128C68.5149 340.877 71.0659 340.582 73.8855 340.256C76.7037 339.93 79.2547 339.635 81.4149 339.385C83.3439 339.173 84.5428 339.07 84.5562 339.162Z" fill="#F9F9F9"/>
<path d="M94.7067 278.783C95.0635 279.501 104.439 328.565 104.439 328.565L82.331 329.616L73.7706 287.424L94.7067 278.783Z" fill="#445964"/>
<path d="M104.439 328.565L106.971 327.475L97.4045 279.112L94.4037 278.908L104.439 328.565Z" fill="#263138"/>
<path d="M85.8184 289.508C85.8956 290.147 85.4493 290.729 84.8214 290.807C84.1934 290.886 83.6218 290.432 83.5446 289.793C83.4671 289.154 83.9135 288.571 84.5414 288.493C85.1693 288.414 85.7409 288.868 85.8184 289.508Z" fill="#263138"/>
<path d="M81.2546 323.95L80.9272 317.525L90.3711 313.565L86.6889 304.66C84.8944 300.508 79.9981 298.803 76.0809 300.966C74.819 301.662 73.492 302.396 72.2921 303.059C69.5929 304.552 67.6302 307.132 66.9169 310.173C65.6862 315.419 64.6088 326.358 64.7228 325.865L81.2546 323.95Z" fill="#FFBD9C"/>
<path d="M55.9746 487.519C55.9746 487.519 17.1202 498.465 15.5614 499.024C13.2206 499.863 13.6139 508.592 17.2565 508.456C18.9795 508.392 47.1006 509.522 50.654 509.296C54.207 509.07 64.9269 504.77 64.9269 504.77L55.9746 487.519Z" fill="#54E346"/>
<path d="M39.7885 502.611C39.5935 502.638 39.3308 500.546 38.0764 498.365C36.8528 496.164 35.2079 494.882 35.3293 494.724C35.397 494.571 37.3271 495.686 38.6399 498.034C39.9747 500.368 39.9524 502.628 39.7885 502.611Z" fill="#263138"/>
<path d="M43.8395 500.741C43.6494 500.775 43.2558 498.905 42.2212 496.839C41.2064 494.762 39.9654 493.327 40.1053 493.191C40.2125 493.061 41.7303 494.355 42.802 496.541C43.8887 498.719 44.0059 500.731 43.8395 500.741Z" fill="#263138"/>
<path d="M47.6396 499.705C47.4439 499.692 47.5933 497.717 46.731 495.526C45.9049 493.321 44.4792 491.972 44.6147 491.828C44.6926 491.677 46.4351 492.9 47.3366 495.285C48.2629 497.66 47.7971 499.762 47.6396 499.705Z" fill="#263138"/>
<path d="M46.9502 494.596C46.8808 494.614 46.5364 493.509 46.5332 491.653C46.536 490.729 46.6404 489.622 46.9268 488.428C47.0691 487.831 47.2613 487.214 47.5052 486.592C47.6308 486.278 47.7742 485.917 48.1274 485.623C48.4899 485.292 49.1493 485.36 49.4618 485.69C49.8179 486.006 49.9308 486.451 49.9793 486.808C50.019 487.172 50.0384 487.51 50.0299 487.853C50.0207 488.534 49.934 489.187 49.7903 489.789C49.5032 490.997 49.0403 492.01 48.5946 492.813C47.6889 494.418 46.9045 495.238 46.8489 495.194C46.7601 495.131 47.411 494.209 48.1869 492.596C48.5688 491.789 48.9674 490.799 49.2056 489.656C49.3256 489.086 49.3925 488.477 49.3932 487.849C49.3755 487.241 49.3843 486.481 49.035 486.189C48.8498 486.033 48.6828 486.023 48.521 486.145C48.3497 486.279 48.206 486.55 48.0952 486.836C47.8545 487.427 47.6588 488.013 47.5066 488.582C47.2011 489.719 47.0532 490.777 46.9926 491.67C46.879 493.461 47.056 494.58 46.9502 494.596Z" fill="#263138"/>
<path d="M46.9985 494.194C46.9805 494.121 47.9181 493.793 49.5046 493.782C50.2939 493.78 51.2414 493.865 52.2615 494.125C52.7648 494.264 53.305 494.396 53.849 494.721C54.381 494.996 54.9381 495.748 54.7268 496.528C54.5605 497.264 53.9414 497.779 53.3273 497.94C52.7086 498.116 52.1097 498.053 51.5844 497.936C50.5183 497.686 49.689 497.152 49.06 496.672C47.8148 495.678 47.207 494.917 47.2534 494.862C47.3217 494.778 48.0576 495.428 49.3233 496.288C49.9601 496.702 50.7572 497.151 51.7065 497.339C52.1787 497.43 52.6877 497.459 53.1475 497.318C53.6048 497.19 53.9849 496.835 54.0936 496.378C54.2051 495.936 53.9417 495.531 53.5166 495.274C53.1004 495.011 52.585 494.861 52.1068 494.715C51.1455 494.435 50.2468 494.307 49.4886 494.25C47.968 494.141 47.0148 494.3 46.9985 494.194Z" fill="#263138"/>
<path d="M33.8185 503.034C33.6263 503.012 33.8167 501.322 33.0525 499.467C32.3251 497.597 31.0279 496.524 31.1504 496.371C31.2144 496.209 32.8391 497.147 33.6546 499.217C34.4931 501.278 33.9753 503.104 33.8185 503.034Z" fill="#263138"/>
<path d="M60.9297 504.86C60.947 504.902 60.4129 505.156 59.4271 505.579C58.4286 505.963 56.9679 506.501 55.1032 506.944C51.387 507.897 46.089 508.438 40.2693 508.375C34.4464 508.309 29.1997 508.04 25.3943 507.885C23.5934 507.787 22.0841 507.706 20.892 507.642C19.8294 507.57 19.2422 507.508 19.2436 507.462C19.245 507.417 19.8347 507.391 20.8998 507.384C22.0929 507.393 23.6047 507.404 25.4081 507.417C29.3437 507.495 34.5334 507.599 40.2725 507.713C46.066 507.775 51.3003 507.313 55.0016 506.487C58.7161 505.71 60.8847 504.737 60.9297 504.86Z" fill="#263138"/>
<path d="M62.0786 505.761C62.0262 505.852 60.9629 505.22 59.1677 504.419C57.3936 503.644 54.7347 502.716 51.8153 503.175C48.8874 503.631 46.8118 505.633 45.46 507.023C44.098 508.462 43.2998 509.418 43.2209 509.351C43.1621 509.301 43.8251 508.251 45.1223 506.705C45.7782 505.941 46.61 505.055 47.6988 504.253C48.7752 503.448 50.1609 502.762 51.713 502.521C54.8451 502.033 57.6049 503.098 59.3616 503.994C61.1441 504.923 62.1182 505.696 62.0786 505.761Z" fill="#263138"/>
<path d="M97.2168 476.6C97.2168 476.6 133.984 501.104 135.302 502.118C137.282 503.641 135.011 510.893 131.581 509.637C129.959 509.043 99.1066 500.307 95.7889 498.993C92.4709 497.679 83.5403 490.268 83.5403 490.268L97.2168 476.6Z" fill="#54E346"/>
<path d="M108.136 495.982C107.974 495.947 108.627 493.788 110.595 491.977C112.547 490.145 114.718 489.68 114.738 489.846C114.806 490.034 112.856 490.747 111.034 492.466C109.188 494.156 108.313 496.068 108.136 495.982Z" fill="#263138"/>
<path d="M104.834 492.948C104.679 492.887 105.39 491.006 107.075 489.267C108.749 487.516 110.581 486.752 110.644 486.909C110.737 487.082 109.126 488.065 107.54 489.73C105.938 491.379 105.005 493.039 104.834 492.948Z" fill="#263138"/>
<path d="M101.522 490.786C101.355 490.792 101.539 488.645 103.13 486.669C104.7 484.675 106.725 484.049 106.754 484.216C106.841 484.395 105.079 485.24 103.635 487.086C102.16 488.906 101.712 490.835 101.522 490.786Z" fill="#263138"/>
<path d="M103.703 486.132C103.607 486.084 104.11 485.072 104.536 483.331C104.745 482.461 104.92 481.407 104.968 480.229C104.992 479.641 104.98 479.022 104.927 478.385C104.907 478.077 104.852 477.775 104.728 477.595C104.611 477.427 104.448 477.386 104.225 477.477C103.805 477.648 103.587 478.375 103.389 478.948C103.202 479.547 103.084 480.147 103.028 480.728C102.915 481.89 102.999 482.957 103.122 483.844C103.379 485.621 103.725 486.7 103.621 486.733C103.555 486.758 103.053 485.734 102.669 483.924C102.484 483.022 102.345 481.914 102.432 480.674C102.474 480.055 102.587 479.407 102.781 478.755C102.875 478.426 102.995 478.109 103.141 477.775C103.294 477.45 103.534 477.061 103.967 476.87C104.364 476.652 105.012 476.791 105.259 477.218C105.507 477.608 105.536 477.996 105.563 478.335C105.609 479.002 105.608 479.649 105.566 480.262C105.482 481.489 105.252 482.575 104.979 483.457C104.421 485.224 103.764 486.17 103.703 486.132Z" fill="#263138"/>
<path d="M103.777 485.734C103.73 485.83 102.869 485.384 101.388 485.017C100.649 484.837 99.7539 484.682 98.7543 484.651C98.2556 484.642 97.7193 484.627 97.2447 484.748C96.7629 484.862 96.3909 485.166 96.3654 485.622C96.3325 486.09 96.5891 486.547 96.9863 486.81C97.3824 487.087 97.8758 487.216 98.3533 487.275C99.3139 487.389 100.207 487.209 100.937 487.011C102.4 486.583 103.295 486.191 103.335 486.291C103.363 486.358 102.556 486.896 101.073 487.458C100.331 487.721 99.3815 487.974 98.2913 487.882C97.7561 487.832 97.1664 487.706 96.6295 487.347C96.0925 487.003 95.6565 486.322 95.717 485.569C95.7488 484.76 96.5038 484.216 97.0928 484.119C97.708 483.977 98.2623 484.018 98.7833 484.042C99.8328 484.109 100.761 484.321 101.512 484.567C103.021 485.068 103.816 485.671 103.777 485.734Z" fill="#263138"/>
<path d="M126.896 508.27C126.854 508.328 126.278 507.891 125.997 506.819C125.689 505.774 125.882 504.166 126.685 502.758C127.069 502.047 127.51 501.432 127.917 500.889C128.319 500.345 128.735 499.854 129.165 499.526C129.59 499.189 130.035 499.037 130.34 499.025C130.648 499.012 130.805 499.089 130.8 499.127C130.799 499.23 130.143 499.18 129.462 499.883C129.117 500.217 128.775 500.687 128.402 501.248C128.025 501.805 127.615 502.411 127.256 503.076C126.511 504.396 126.289 505.76 126.447 506.725C126.581 507.694 126.983 508.206 126.896 508.27Z" fill="#263138"/>
<path d="M113.697 498.231C113.527 498.249 113.579 496.348 114.992 494.645C116.387 492.924 118.215 492.533 118.228 492.707C118.298 492.89 116.742 493.512 115.492 495.069C114.21 496.6 113.887 498.269 113.697 498.231Z" fill="#263138"/>
<path d="M87.3216 491.589C87.3538 491.55 87.9169 491.972 88.9378 492.718C89.972 493.447 91.4912 494.467 93.4709 495.546C95.4484 496.626 97.8893 497.748 100.671 498.808C103.456 499.865 106.578 500.862 109.88 501.836C116.495 503.775 122.483 505.547 126.804 506.87C128.876 507.518 130.595 508.055 131.913 508.467C133.115 508.858 133.774 509.095 133.762 509.139C133.749 509.183 133.067 509.03 131.843 508.715C130.511 508.355 128.773 507.886 126.677 507.321C122.323 506.112 116.319 504.412 109.698 502.471C106.39 501.495 103.253 500.475 100.459 499.378C97.6656 498.278 95.2183 497.1 93.2486 495.955C91.277 494.813 89.7812 493.722 88.7866 492.925C87.8047 492.109 87.2961 491.62 87.3216 491.589Z" fill="#263138"/>
<path d="M85.9586 492.093C85.9402 492.019 87.0987 491.583 89.0741 491.249C91.0152 490.939 93.9626 490.777 96.8013 492.21C98.2076 492.92 99.3236 494.002 100.109 495.102C100.907 496.203 101.435 497.304 101.832 498.234C102.607 500.108 102.925 501.314 102.854 501.343C102.759 501.383 102.284 500.226 101.415 498.433C100.543 496.69 99.1622 494.141 96.5086 492.801C93.8642 491.461 91.0538 491.524 89.1322 491.714C87.1829 491.922 85.9812 492.196 85.9586 492.093Z" fill="#263138"/>
<path d="M183.377 282.457L185.777 331.89C186.186 340.297 179.6 347.34 171.331 347.34C163.615 347.34 157.257 341.166 156.885 333.32C156.708 329.599 156.553 326.496 156.51 326.115C156.51 326.115 144.089 325.553 142.592 313.143C141.869 307.146 141.366 294.669 141.04 283.377C140.69 271.249 149.563 260.887 161.41 259.557L162.588 259.424C175.371 258.753 183.072 269.431 183.377 282.457Z" fill="#FFBD9C"/>
<path d="M156.47 325.938C156.47 325.938 164.255 325.71 171.887 319.547C171.887 319.547 169.094 328.913 156.79 329.161L156.47 325.938Z" fill="#EB996E"/>
<path d="M144.921 291.134C144.99 292.075 145.829 292.791 146.796 292.736C147.761 292.681 148.488 291.875 148.419 290.934C148.351 289.993 147.511 289.276 146.546 289.331C145.58 289.386 144.852 290.193 144.921 291.134Z" fill="#263138"/>
<path d="M144.324 289.182C144.565 289.389 145.778 288.246 147.655 288.04C149.526 287.807 151.01 288.635 151.188 288.379C151.277 288.264 151.011 287.871 150.364 287.494C149.726 287.118 148.672 286.8 147.504 286.937C146.336 287.074 145.401 287.622 144.884 288.134C144.356 288.65 144.206 289.09 144.324 289.182Z" fill="#263138"/>
<path d="M163.343 289.52C163.412 290.461 164.251 291.177 165.218 291.122C166.182 291.066 166.91 290.261 166.841 289.32C166.772 288.379 165.933 287.662 164.968 287.717C164.001 287.772 163.274 288.579 163.343 289.52Z" fill="#263138"/>
<path d="M162.804 287.467C163.045 287.675 164.26 286.531 166.135 286.326C168.007 286.093 169.49 286.921 169.669 286.664C169.757 286.549 169.494 286.157 168.844 285.78C168.206 285.403 167.153 285.086 165.985 285.222C164.817 285.36 163.881 285.908 163.364 286.42C162.838 286.935 162.687 287.376 162.804 287.467Z" fill="#263138"/>
<path d="M157.53 302.395C157.527 302.285 156.339 302.211 154.422 302.177C153.938 302.181 153.474 302.135 153.357 301.811C153.206 301.471 153.349 300.923 153.52 300.33C153.843 299.099 154.18 297.809 154.534 296.457C155.929 290.949 156.882 286.442 156.664 286.387C156.445 286.332 155.138 290.751 153.743 296.259C153.411 297.616 153.093 298.91 152.791 300.147C152.67 300.722 152.426 301.385 152.75 302.089C152.918 302.439 153.298 302.664 153.615 302.714C153.932 302.774 154.202 302.749 154.441 302.737C156.354 302.628 157.535 302.504 157.53 302.395Z" fill="#263138"/>
<path d="M163.194 303.096C162.887 303.112 163.108 305.185 161.524 306.852C159.944 308.524 157.748 308.535 157.764 308.826C157.749 308.96 158.291 309.175 159.21 309.097C160.112 309.028 161.393 308.586 162.362 307.567C163.327 306.545 163.654 305.29 163.631 304.431C163.615 303.556 163.332 303.068 163.194 303.096Z" fill="#263138"/>
<path d="M161.509 280.037C161.75 280.536 163.597 280.08 165.826 280.103C168.057 280.08 169.904 280.536 170.145 280.038C170.251 279.801 169.889 279.347 169.117 278.925C168.351 278.503 167.164 278.153 165.827 278.152C164.49 278.153 163.303 278.503 162.537 278.924C161.765 279.346 161.402 279.8 161.509 280.037Z" fill="#263138"/>
<path d="M144.415 283.577C144.792 283.974 146.035 283.379 147.588 283.183C149.132 282.932 150.489 283.152 150.743 282.664C150.852 282.429 150.598 282.018 149.978 281.672C149.367 281.326 148.383 281.099 147.319 281.251C146.255 281.406 145.372 281.903 144.879 282.408C144.378 282.915 144.246 283.382 144.415 283.577Z" fill="#263138"/>
<path d="M183.377 291.771C183.576 291.656 191.492 288.303 192.146 296.829C192.8 305.355 184.256 304.265 184.223 304.021C184.19 303.778 183.377 291.771 183.377 291.771Z" fill="#FFBD9C"/>
<path d="M186.534 300.588C186.568 300.558 186.687 300.68 186.943 300.776C187.192 300.869 187.611 300.913 188.035 300.712C188.895 300.311 189.53 298.822 189.453 297.282C189.415 296.505 189.198 295.778 188.881 295.188C188.578 294.585 188.148 294.18 187.697 294.135C187.245 294.066 186.95 294.363 186.867 294.611C186.773 294.858 186.839 295.024 186.796 295.042C186.774 295.065 186.605 294.914 186.645 294.556C186.667 294.384 186.75 294.175 186.934 293.996C187.122 293.813 187.411 293.705 187.724 293.714C188.373 293.709 189.001 294.267 189.35 294.915C189.734 295.563 189.995 296.378 190.038 297.251C190.116 298.974 189.375 300.65 188.192 301.103C187.615 301.306 187.109 301.164 186.84 300.983C186.564 300.793 186.506 300.606 186.534 300.588Z" fill="#EB996E"/>
<path d="M187.99 290.961C186.683 290.791 184.611 292.234 184.199 293.508C183.788 294.782 183.817 296.17 183.408 297.445C182.998 298.72 181.894 299.955 180.586 299.791C179.684 299.678 178.965 298.91 178.636 298.048C178.308 297.185 178.301 296.235 178.315 295.311C178.377 291.287 178.77 287.261 178.493 283.247C178.217 279.233 177.209 275.144 174.778 271.972C172.348 268.798 168.291 266.72 164.409 267.481C161.838 267.985 159.609 269.629 157.071 270.286C154.063 271.064 150.714 270.329 148.288 268.358C147.977 268.106 146.579 267.378 146.579 267.378C146.557 267.172 146.555 265.376 147.173 264.652C151.764 259.265 160.831 256.887 167.771 257.859C174.712 258.831 181.568 262.974 185.172 269.089C188.776 275.205 188.884 284.262 187.99 290.961Z" fill="#263138"/>
<path d="M51.5578 487.062C51.5578 487.062 141.724 426.859 145.416 425.606C149.108 424.353 158.031 418.403 166.953 420.908C175.875 423.413 183.875 431.556 187.874 443.457C191.874 455.359 192.182 481.98 192.182 481.98C192.182 481.98 185.105 502.963 171.26 507.348C170.107 507.713 168.899 508.018 167.656 508.269C150.756 511.682 133.57 503.771 124.11 489.113L122.098 485.995C122.098 485.995 63.1141 508.054 62.191 507.741L51.5578 487.062Z" fill="#263138"/>
<path d="M20.8097 416.837C20.8097 416.837 9.77972 420.846 9.7337 433.436C9.64486 457.551 57.6006 484.132 57.6006 484.132L121.418 441.09V436.567C121.418 436.567 39.2699 406.502 20.8097 416.837Z" fill="#263138"/>
<path d="M163.108 470.49C163.108 470.49 162.945 470.575 162.614 470.713C162.257 470.857 161.768 471.055 161.138 471.309C159.807 471.831 157.888 472.583 155.422 473.55C150.407 475.473 143.172 478.247 134.178 481.696C125.153 485.123 114.345 489.198 102.217 493.69C90.0881 498.178 76.6476 503.104 62.294 508.052L62.0335 508.141L61.9054 507.892C59.6517 503.512 57.2739 498.89 54.8609 494.199C53.631 491.806 52.4102 489.432 51.2704 487.215L51.132 486.946L51.3819 486.784C78.4567 469.289 102.68 453.637 120.161 442.341C128.889 436.736 135.933 432.214 140.82 429.075C143.24 427.538 145.125 426.34 146.431 425.511C147.057 425.121 147.544 424.819 147.896 424.599C148.228 424.397 148.406 424.308 148.406 424.308C148.406 424.308 148.25 424.434 147.93 424.654C147.586 424.887 147.11 425.207 146.498 425.62C145.207 426.473 143.343 427.704 140.95 429.286C136.088 432.465 129.082 437.046 120.399 442.724C102.947 454.064 78.7643 469.776 51.7341 487.339L51.8452 486.909C52.9853 489.125 54.2065 491.5 55.4368 493.892C57.8483 498.583 60.2248 503.206 62.477 507.588L62.0887 507.429C76.4353 502.495 89.8824 497.592 102.022 493.141C114.142 488.651 124.969 484.64 134.028 481.284C143.051 477.915 150.308 475.204 155.339 473.326C157.823 472.406 159.755 471.69 161.095 471.194C161.734 470.964 162.231 470.785 162.592 470.655C162.93 470.536 163.108 470.49 163.108 470.49Z" fill="#445964"/>
<path d="M89.091 462.83C89.0638 462.866 88.4734 462.456 87.4289 461.682C86.3829 460.91 84.8906 459.765 83.0639 458.327C79.41 455.453 74.439 451.378 69.0911 446.706C63.7432 442.029 59.0342 437.643 55.69 434.401C54.0172 432.781 52.6796 431.453 51.7721 430.517C50.8631 429.583 50.3753 429.051 50.4065 429.018C50.4376 428.985 50.9842 429.454 51.9462 430.33C52.989 431.289 54.3545 432.544 56.0025 434.058C59.4235 437.209 64.1743 441.534 69.5145 446.204C74.8549 450.869 79.7724 454.995 83.3502 457.961C85.0701 459.39 86.4955 460.575 87.5839 461.479C88.5803 462.314 89.1187 462.794 89.091 462.83Z" fill="#445964"/>
<path d="M38.8253 425.85C38.8016 425.688 41.6485 425.405 44.975 426.419C48.3103 427.407 50.5491 429.218 50.4429 429.341C50.3371 429.513 48.0105 428.004 44.7909 427.053C41.5816 426.072 38.8225 426.053 38.8253 425.85Z" fill="#445964"/>
<path d="M44.3225 422.05C44.3799 421.893 46.4254 422.809 48.106 424.946C49.8053 427.069 50.2538 429.297 50.0917 429.321C49.9058 429.387 49.2082 427.363 47.6002 425.362C46.0173 423.341 44.2202 422.221 44.3225 422.05Z" fill="#445964"/>
<path d="M17.3004 498.407C17.2664 498.331 18.0618 498.175 18.9456 498.915C19.8142 499.622 20.5526 501.036 20.7901 502.685C21.0301 504.347 20.6665 505.873 20.2082 506.843C19.7565 507.83 19.2599 508.293 19.204 508.246C19.1166 508.185 19.4659 507.636 19.7813 506.668C20.1062 505.712 20.366 504.302 20.1462 502.778C19.9275 501.263 19.3173 499.954 18.637 499.262C17.9598 498.54 17.287 498.512 17.3004 498.407Z" fill="#263138"/>
<path d="M459.903 429.111V441.295H547.011V429.111H459.903Z" fill="#263138"/>
<path d="M547.159 441.446H459.753V428.959H547.159V441.446ZM460.051 441.143H546.861V429.262H460.051V441.143Z" fill="#263138"/>
<path d="M467.979 437.239L480.518 500.205H526.911L539.031 441.294L467.979 437.239Z" fill="#263138"/>
<path d="M467.979 494.249L474.666 503.609H531.057L539.031 494.249H467.979Z" fill="#445964"/>
<path d="M500.186 439.078C500.014 439.078 499.795 409.908 499.695 373.932C499.596 337.944 499.654 308.778 499.825 308.778C499.997 308.778 500.216 337.942 500.316 373.93C500.415 409.906 500.357 439.078 500.186 439.078Z" fill="#263138"/>
<path d="M519.59 366.079C519.609 366.088 519.528 366.322 519.356 366.757C519.152 367.252 518.894 367.877 518.578 368.645C518.405 369.061 518.215 369.514 518.01 370.005C517.83 370.519 517.637 371.071 517.43 371.66C517.22 372.257 516.995 372.891 516.759 373.56C516.526 374.234 516.343 374.968 516.114 375.726C515.163 378.749 514.407 382.457 513.678 386.582C513.044 390.728 512.569 395.32 512.329 400.159C511.906 409.846 512.443 418.631 513.018 424.958C513.298 428.124 513.58 430.683 513.787 432.449C513.876 433.277 513.949 433.952 514.007 434.486C514.05 434.952 514.063 435.199 514.042 435.203C514.02 435.206 513.967 434.965 513.883 434.504C513.795 433.974 513.684 433.304 513.548 432.482C513.267 430.724 512.918 428.17 512.581 425.003C511.894 418.674 511.284 409.863 511.709 400.129C511.949 395.268 512.445 390.652 513.114 386.487C513.878 382.341 514.684 378.62 515.695 375.595C515.938 374.836 516.136 374.103 516.385 373.429C516.639 372.762 516.879 372.13 517.106 371.535C517.33 370.95 517.541 370.401 517.737 369.89C517.951 369.394 518.171 368.95 518.357 368.546C518.718 367.796 519.011 367.185 519.243 366.702C519.452 366.284 519.57 366.069 519.59 366.079Z" fill="#263138"/>
<path d="M517.363 342.486C517.383 342.494 517.287 342.825 517.086 343.448C516.86 344.122 516.558 345.026 516.179 346.16C515.977 346.753 515.754 347.405 515.513 348.115C515.296 348.842 515.062 349.629 514.812 350.47C514.302 352.158 513.711 354.077 513.187 356.235C512.908 357.31 512.617 358.436 512.313 359.607C512.051 360.791 511.778 362.022 511.497 363.295C510.888 365.834 510.449 368.593 509.888 371.474C508.928 377.267 508.082 383.672 507.499 390.428C506.949 397.189 506.709 403.65 506.624 409.528C506.607 415.405 506.68 420.702 506.918 425.142C506.994 427.364 507.134 429.371 507.247 431.134C507.347 432.898 507.456 434.415 507.566 435.654C507.656 436.849 507.727 437.801 507.779 438.511C507.822 439.166 507.833 439.51 507.812 439.513C507.791 439.515 507.737 439.175 507.655 438.525C507.573 437.816 507.463 436.868 507.326 435.677C507.178 434.441 507.034 432.924 506.901 431.16C506.755 429.398 506.584 427.39 506.479 425.165C506.186 420.72 506.067 415.415 506.052 409.523C506.106 403.632 506.329 397.154 506.88 390.375C507.465 383.6 508.331 377.177 509.324 371.372C509.903 368.485 510.362 365.722 510.995 363.18C511.29 361.906 511.574 360.674 511.848 359.489C512.166 358.318 512.472 357.192 512.764 356.117C513.317 353.96 513.939 352.045 514.481 350.363C514.75 349.525 515 348.743 515.233 348.018C515.493 347.314 515.733 346.666 515.951 346.078C516.377 344.959 516.716 344.068 516.969 343.403C517.208 342.794 517.343 342.478 517.363 342.486Z" fill="#263138"/>
<path d="M494.676 444.239C494.665 444.239 494.649 444.124 494.627 443.898C494.605 443.636 494.578 443.305 494.545 442.894C494.483 441.964 494.397 440.672 494.288 439.031C494.079 435.628 493.781 430.786 493.415 424.822C492.658 412.827 491.565 396.255 489.582 378.031C488.569 368.92 487.394 360.266 486.172 352.42C485.523 348.504 484.934 344.777 484.266 341.311C483.653 337.833 482.993 334.613 482.385 331.673C481.813 328.726 481.174 326.087 480.661 323.758C480.157 321.427 479.668 319.433 479.26 317.805C478.876 316.208 478.573 314.95 478.356 314.046C478.265 313.643 478.193 313.32 478.136 313.063C478.089 312.841 478.071 312.726 478.081 312.723C478.091 312.72 478.131 312.83 478.197 313.046C478.27 313.299 478.362 313.616 478.476 314.012C478.721 314.91 479.062 316.158 479.494 317.743C479.939 319.363 480.461 321.351 480.999 323.676C481.545 325.999 482.213 328.634 482.814 331.579C483.45 334.516 484.136 337.736 484.771 341.213C485.462 344.68 486.071 348.408 486.737 352.327C487.991 360.177 489.185 368.84 490.199 377.961C492.184 396.204 493.208 412.791 493.853 424.796C494.173 430.799 494.396 435.659 494.529 439.018C494.589 440.662 494.636 441.956 494.669 442.887C494.678 443.3 494.684 443.632 494.69 443.894C494.691 444.121 494.687 444.238 494.676 444.239Z" fill="#263138"/>
<path d="M499.475 322.801C499.097 318.669 494.994 315.551 490.917 315.509C486.839 315.466 483.039 317.955 480.546 321.238C478.052 324.522 476.677 328.531 475.552 332.521C472.806 342.257 471.305 352.486 472.479 362.545C473.653 372.603 477.662 382.506 484.753 389.613C485.906 390.768 487.399 391.924 488.982 391.58C489.847 391.392 490.556 390.781 491.212 390.177C505.141 377.368 513.185 358.185 512.634 339.085C512.524 335.26 512.03 331.279 509.949 328.093C507.868 324.906 503.018 321.522 499.475 322.801Z" fill="#54E346"/>
<path d="M469.03 289.701C467.115 293.23 465.201 296.759 463.287 300.287C463.153 300.534 462.976 300.81 462.7 300.834C462.398 300.859 462.173 300.569 462.008 300.311C456.947 292.405 451.886 284.498 446.826 276.593L450.324 274.575L469.03 289.701Z" fill="#54E346"/>
<path d="M469.03 289.701C467.115 293.23 465.201 296.759 463.287 300.287C463.153 300.534 462.976 300.81 462.7 300.834C462.398 300.859 462.173 300.569 462.008 300.311C456.947 292.405 451.886 284.498 446.826 276.593L450.324 274.575L469.03 289.701Z" fill="black" fill-opacity="0.2"/>
<path d="M499.825 308.777C482.562 298.408 465.299 288.038 448.036 277.669C447.508 277.352 446.935 276.977 446.776 276.375C446.569 275.595 447.144 274.842 447.697 274.262C454.82 266.782 465.166 262.446 475.373 263.194C485.581 263.941 495.397 269.944 500.394 279.034C505.392 288.125 505.557 300.147 499.825 308.777Z" fill="#54E346"/>
<path d="M455.5 267.739C455.499 267.718 455.732 267.689 456.179 267.654C456.625 267.631 457.284 267.548 458.136 267.558C459.837 267.515 462.312 267.629 465.321 268.139C468.33 268.642 471.863 269.627 475.555 271.303C479.245 272.971 483.062 275.386 486.54 278.558C489.989 281.765 492.731 285.392 494.729 288.963C496.735 292.536 498.051 296.017 498.842 299.014C499.64 302.012 499.998 304.507 500.126 306.234C500.22 307.095 500.205 307.771 500.227 308.225C500.237 308.681 500.232 308.92 500.211 308.921C500.156 308.924 500.091 307.97 499.885 306.26C499.685 304.551 499.264 302.088 498.42 299.136C496.783 293.265 492.981 285.35 486.124 279.027C479.261 272.714 471.146 269.651 465.244 268.578C462.275 268.018 459.825 267.837 458.134 267.804C456.442 267.766 455.503 267.796 455.5 267.739Z" fill="#263138"/>
<path d="M492.815 287.306C492.845 287.386 491.848 287.856 490.197 288.518C488.547 289.18 486.242 290.025 483.663 290.86C481.082 291.694 478.719 292.357 476.997 292.785C475.274 293.214 474.193 293.416 474.172 293.334C474.149 293.247 475.19 292.893 476.879 292.355C478.788 291.748 481.014 291.04 483.475 290.258C485.927 289.452 488.147 288.722 490.05 288.097C491.734 287.544 492.785 287.223 492.815 287.306Z" fill="#263138"/>
<path d="M484.661 265.007C484.827 264.991 485.194 267.62 485.273 270.888C485.357 274.157 485.12 276.8 484.953 276.793C484.778 276.787 484.736 274.15 484.652 270.904C484.574 267.658 484.486 265.022 484.661 265.007Z" fill="#263138"/>
<path d="M447.584 277.08C447.56 276.999 448.993 276.47 451.346 275.732C453.699 274.994 456.976 274.059 460.628 273.162C464.282 272.267 467.618 271.58 470.043 271.147C472.468 270.713 473.981 270.52 473.995 270.603C474.011 270.691 472.528 271.04 470.129 271.585C467.73 272.129 464.418 272.883 460.774 273.776C457.13 274.671 453.845 275.534 451.465 276.162C449.086 276.789 447.609 277.166 447.584 277.08Z" fill="#263138"/>
<path d="M475.946 313.02C471.492 309.581 466.782 308.904 461.196 309.13C455.611 309.355 450.174 311.087 445.054 313.37C436.321 317.263 428.112 323.002 422.894 331.124C417.676 339.246 415.861 349.999 419.768 358.852C420.157 359.733 420.663 360.655 421.536 361.036C422.456 361.436 423.509 361.124 424.459 360.808C434.391 357.51 444.394 354.181 453.527 349.016C462.659 343.85 470.972 336.671 475.872 327.278C477.048 325.025 478.032 322.609 478.225 320.065C478.416 317.521 477.726 314.816 475.946 313.02Z" fill="#54E346"/>
<path d="M476.034 311.953C476.04 311.974 475.794 312.075 475.32 312.249C474.782 312.437 474.092 312.679 473.238 312.978C472.779 313.134 472.276 313.304 471.732 313.489C471.185 313.689 470.603 313.939 469.971 314.187C468.714 314.705 467.255 315.222 465.719 315.98C464.942 316.341 464.129 316.718 463.284 317.11C462.439 317.507 461.596 317.994 460.703 318.457C458.903 319.358 457.082 320.508 455.142 321.674C451.334 324.124 447.304 327.074 443.382 330.551C439.492 334.07 436.104 337.764 433.23 341.296C431.848 343.107 430.495 344.8 429.388 346.503C428.823 347.345 428.24 348.134 427.746 348.936C427.256 349.74 426.786 350.512 426.335 351.252C425.4 352.706 424.711 354.113 424.047 355.315C423.724 355.922 423.407 356.478 423.142 357.004C422.893 357.531 422.662 358.016 422.452 358.46C422.052 359.284 421.729 359.95 421.477 360.468C421.248 360.925 421.118 361.161 421.098 361.153C421.078 361.144 421.17 360.891 421.363 360.417C421.587 359.885 421.876 359.202 422.233 358.356C422.43 357.903 422.644 357.407 422.877 356.871C423.127 356.335 423.43 355.768 423.739 355.151C424.377 353.928 425.043 352.499 425.959 351.022C426.401 350.272 426.862 349.489 427.343 348.673C427.829 347.859 428.406 347.059 428.965 346.205C430.06 344.478 431.406 342.763 432.786 340.93C435.654 337.354 439.054 333.62 442.972 330.077C446.922 326.575 450.992 323.617 454.842 321.178C456.803 320.018 458.645 318.878 460.467 317.992C461.37 317.537 462.223 317.057 463.079 316.669C463.934 316.288 464.757 315.922 465.544 315.571C467.099 314.835 468.577 314.344 469.85 313.856C470.491 313.622 471.081 313.388 471.635 313.204C472.188 313.038 472.698 312.884 473.164 312.743C474.034 312.49 474.737 312.286 475.284 312.127C475.771 311.993 476.029 311.932 476.034 311.953Z" fill="#263138"/>
<path d="M441.236 331.133C441.284 331.3 436.433 332.891 430.402 334.686C424.369 336.482 419.44 337.801 419.392 337.634C419.344 337.467 424.195 335.876 430.228 334.08C436.259 332.285 441.188 330.966 441.236 331.133Z" fill="#263138"/>
<path d="M440.79 355.471C440.706 355.472 440.609 354.16 440.552 352.035C440.495 349.91 440.486 346.973 440.575 343.731C440.664 340.489 440.835 337.557 441.008 335.439C441.182 333.32 441.351 332.015 441.434 332.022C441.522 332.028 441.507 333.342 441.446 335.463C441.376 337.792 441.29 340.621 441.195 343.749C441.118 346.877 441.048 349.706 440.991 352.035C440.936 354.156 440.878 355.47 440.79 355.471Z" fill="#263138"/>
<path d="M461.272 344.849C461.101 344.862 460.557 338.894 460.056 331.522C459.555 324.147 459.288 318.161 459.459 318.149C459.63 318.138 460.174 324.104 460.675 331.478C461.176 338.85 461.443 344.837 461.272 344.849Z" fill="#263138"/>
<path d="M435.777 317.571C435.781 317.483 437.109 317.449 439.25 317.464C441.392 317.479 444.347 317.543 447.611 317.652C450.875 317.763 453.829 317.897 455.967 318.027C458.104 318.156 459.426 318.28 459.425 318.367C459.424 318.454 458.099 318.488 455.957 318.473C453.816 318.458 450.857 318.394 447.59 318.284C444.324 318.174 441.368 318.04 439.231 317.91C437.093 317.781 435.773 317.657 435.777 317.571Z" fill="#263138"/>
<path d="M486.974 392.452C486.952 392.453 486.928 392.205 486.9 391.732C486.876 391.19 486.845 390.504 486.809 389.661C486.73 387.862 486.713 385.255 486.779 382.035C486.836 378.815 487.046 374.984 487.418 370.741C487.822 366.502 488.405 361.853 489.241 357.011C490.1 352.171 491.129 347.602 492.189 343.481C493.278 339.368 494.381 335.698 495.42 332.656C496.45 329.611 497.351 327.171 498.034 325.51C498.355 324.732 498.616 324.099 498.822 323.599C499.009 323.165 499.116 322.941 499.136 322.949C499.156 322.957 499.087 323.197 498.939 323.646C498.761 324.157 498.536 324.803 498.26 325.598C497.646 327.283 496.81 329.742 495.837 332.796C494.853 335.849 493.798 339.52 492.742 343.628C491.716 347.743 490.708 352.299 489.852 357.122C489.02 361.946 488.421 366.575 487.987 370.797C487.585 375.023 487.33 378.84 487.218 382.049C487.095 385.259 487.046 387.86 487.05 389.657C487.04 390.501 487.031 391.186 487.025 391.728C487.012 392.202 486.995 392.451 486.974 392.452Z" fill="#263138"/>
<path d="M489.706 356.483C489.764 356.544 488.981 357.432 487.64 358.791C486.3 360.151 484.398 361.977 482.227 363.915C480.056 365.852 478.028 367.533 476.528 368.707C475.029 369.882 474.062 370.557 474.01 370.49C473.955 370.42 474.825 369.622 476.25 368.362C477.842 366.955 479.73 365.285 481.818 363.44C483.888 361.575 485.762 359.887 487.34 358.466C488.754 357.192 489.645 356.419 489.706 356.483Z" fill="#263138"/>
<path d="M506.099 369.925C506.024 369.973 505.203 368.773 503.898 366.822C502.482 364.719 500.725 362.108 498.781 359.22C496.796 356.36 495.001 353.774 493.556 351.691C492.212 349.769 491.394 348.568 491.464 348.513C491.529 348.462 492.472 349.566 493.908 351.424C495.344 353.281 497.265 355.898 499.29 358.859C501.313 361.82 503.055 364.564 504.267 366.58C505.479 368.596 506.169 369.88 506.099 369.925Z" fill="#263138"/>
<path d="M497.511 327.652C497.604 327.799 492.159 331.53 485.35 335.986C478.54 340.443 472.946 343.936 472.852 343.789C472.76 343.642 478.204 339.911 485.015 335.454C491.823 330.999 497.419 327.505 497.511 327.652Z" fill="#263138"/>
<path d="M512.865 344.521C512.746 344.646 509.058 341.177 504.629 336.774C500.2 332.369 496.706 328.699 496.826 328.574C496.946 328.449 500.633 331.918 505.063 336.322C509.492 340.725 512.985 344.396 512.865 344.521Z" fill="#263138"/>
<path d="M516.727 344.183L521.401 343.789C524.719 343.509 527.94 342.51 530.841 340.847C532.275 340.026 533.716 339.221 535.241 338.598C541.02 336.236 547.469 336.659 553.688 336.341C563.84 335.822 573.884 333.21 583.034 328.703C583.563 328.442 584.03 328.045 584.313 327.521C585.273 325.741 583.49 324.156 581.954 323.193C574.079 318.253 566.063 313.251 557.132 310.799C548.201 308.347 538.063 308.761 530.443 314.099C521.498 320.366 518.238 333.237 516.727 344.183Z" fill="#54E346"/>
<path d="M584.418 326.937C584.408 326.956 584.135 326.826 583.626 326.561C583.065 326.263 582.329 325.87 581.41 325.38C579.488 324.352 576.722 322.833 573.227 321.127C569.729 319.439 565.49 317.534 560.559 316.157C555.648 314.768 549.983 314.041 544.141 314.803C538.323 315.584 532.966 317.888 529.174 321.346C525.358 324.792 523.026 328.953 521.38 332.489C519.738 336.055 518.726 339.089 517.989 341.165C517.644 342.16 517.368 342.958 517.157 343.565C516.963 344.112 516.851 344.396 516.83 344.39C516.81 344.383 516.882 344.086 517.038 343.525C517.221 342.909 517.461 342.098 517.76 341.087C518.428 338.984 519.378 335.921 520.982 332.301C522.591 328.714 524.91 324.464 528.795 320.91C532.659 317.342 538.14 314.969 544.06 314.177C550.002 313.401 555.759 314.162 560.712 315.596C565.687 317.019 569.932 318.98 573.418 320.725C576.902 322.49 579.639 324.069 581.526 325.165C582.422 325.698 583.14 326.125 583.686 326.45C584.176 326.751 584.429 326.918 584.418 326.937Z" fill="#263138"/>
<path d="M573.192 333.076C573.096 333.221 566.983 329.195 559.538 324.086C552.092 318.974 546.134 314.715 546.23 314.57C546.326 314.425 552.439 318.45 559.885 323.562C567.329 328.671 573.288 332.931 573.192 333.076Z" fill="#263138"/>
<path d="M567.319 313.975C567.352 314.141 565.231 314.701 562.548 314.949C559.864 315.204 557.679 315.046 557.681 314.877C557.682 314.698 559.842 314.571 562.491 314.32C565.14 314.075 567.287 313.798 567.319 313.975Z" fill="#263138"/>
<path d="M539.908 308.975C540.056 309.064 539.158 310.892 537.903 313.057C536.647 315.224 535.51 316.908 535.362 316.819C535.215 316.73 536.113 314.903 537.368 312.736C538.623 310.571 539.76 308.886 539.908 308.975Z" fill="#263138"/>
<path d="M545.386 336.742C545.344 336.813 544.21 336.21 542.444 335.119C540.678 334.028 538.291 332.428 535.741 330.544C533.191 328.658 530.942 326.876 529.326 325.571C527.712 324.264 526.736 323.426 526.787 323.355C526.838 323.286 527.907 323.998 529.59 325.214C531.424 326.571 533.647 328.214 536.105 330.032C538.647 331.911 540.982 333.559 542.682 334.743C544.382 335.927 545.433 336.665 545.386 336.742Z" fill="#263138"/>
<path d="M523.609 364.399C519.151 363.2 513.836 367.615 512.917 372.215C511.998 376.815 513.693 381.52 515.677 385.757C520.069 395.138 526.131 403.838 534.115 410.314C542.099 416.79 552.099 420.932 562.307 420.879C560.422 411.967 562.807 402.656 561.755 393.603C560.838 385.701 557.219 378.151 551.664 372.553C546.109 366.955 538.656 363.346 530.885 362.491C528.039 362.178 524.745 361.724 523.609 364.399Z" fill="#54E346"/>
<path d="M562.307 420.879C562.297 420.898 562.08 420.794 561.673 420.578C561.27 420.355 560.689 419.994 560.005 419.439C558.605 418.357 557.001 416.272 555.602 413.445C554.891 412.04 554.097 410.515 553.321 408.826C552.568 407.131 551.765 405.325 550.922 403.428C550.071 401.537 549.136 399.574 547.974 397.659C546.818 395.741 545.442 393.866 543.918 392.043C540.865 388.393 537.59 385.235 534.75 382.219C531.896 379.214 529.496 376.319 527.761 373.682C526.009 371.055 524.948 368.702 524.346 367.042C524.059 366.205 523.852 365.551 523.75 365.096C523.638 364.644 523.589 364.404 523.609 364.399C523.667 364.382 523.92 365.326 524.571 366.953C525.237 368.57 526.344 370.863 528.123 373.43C529.885 376.007 532.296 378.843 535.161 381.814C538.013 384.798 541.306 387.947 544.391 391.634C545.931 393.476 547.324 395.38 548.493 397.336C549.668 399.289 550.602 401.282 551.443 403.188C552.267 405.092 553.051 406.904 553.788 408.606C554.536 410.287 555.309 411.828 555.992 413.241C557.335 416.075 558.834 418.128 560.16 419.25C561.462 420.394 562.344 420.818 562.307 420.879Z" fill="#263138"/>
<path d="M539.251 413.472C539.17 413.456 539.31 412.286 539.66 410.417C540.009 408.548 540.582 405.983 541.354 403.187C542.129 400.391 542.956 397.899 543.617 396.119C544.277 394.339 544.757 393.266 544.834 393.296C544.918 393.327 544.584 394.452 544.032 396.264C543.48 398.075 542.722 400.576 541.952 403.359C541.183 406.14 540.546 408.676 540.088 410.514C539.63 412.352 539.338 413.49 539.251 413.472Z" fill="#263138"/>
<path d="M561.462 391.597C561.435 391.684 560.242 391.373 558.321 390.862C556.4 390.351 553.747 389.652 550.796 388.975C547.843 388.299 545.152 387.772 543.201 387.396C541.25 387.02 540.042 386.779 540.054 386.689C540.065 386.607 541.295 386.691 543.271 386.955C545.245 387.219 547.964 387.679 550.932 388.358C553.899 389.039 556.549 389.81 558.444 390.433C560.34 391.056 561.487 391.517 561.462 391.597Z" fill="#263138"/>
<path d="M522.706 397.953C522.625 397.937 522.797 396.584 523.188 394.417C523.58 392.251 524.204 389.272 525.038 386.018C525.873 382.763 526.759 379.853 527.457 377.768C528.156 375.683 528.656 374.418 528.734 374.444C528.818 374.472 528.466 375.787 527.876 377.901C527.287 380.016 526.471 382.935 525.638 386.178C524.808 389.42 524.119 392.371 523.617 394.51C523.117 396.648 522.793 397.97 522.706 397.953Z" fill="#263138"/>
<path d="M551.233 372.533C551.215 372.706 545.649 372.248 538.803 371.509C531.954 370.77 526.418 370.03 526.437 369.857C526.455 369.683 532.019 370.142 538.868 370.881C545.715 371.62 551.251 372.359 551.233 372.533Z" fill="#263138"/>
<path d="M547.156 441.243C547.156 441.418 527.589 441.559 503.459 441.559C479.32 441.559 459.758 441.418 459.758 441.243C459.758 441.069 479.32 440.927 503.459 440.927C527.589 440.927 547.156 441.069 547.156 441.243Z" fill="#445964"/>
<path d="M533.543 466.874C533.543 467.048 520.36 467.19 504.101 467.19C487.837 467.19 474.657 467.048 474.657 466.874C474.657 466.699 487.837 466.558 504.101 466.558C520.36 466.558 533.543 466.699 533.543 466.874Z" fill="#445964"/>
<path d="M534.057 470.538C534.057 470.713 520.874 470.854 504.615 470.854C488.351 470.854 475.171 470.713 475.171 470.538C475.171 470.364 488.351 470.222 504.615 470.222C520.874 470.222 534.057 470.364 534.057 470.538Z" fill="#445964"/>
<path d="M534.057 463.853C534.057 464.028 520.421 464.169 503.604 464.169C486.781 464.169 473.148 464.028 473.148 463.853C473.148 463.679 486.781 463.538 503.604 463.538C520.421 463.538 534.057 463.679 534.057 463.853Z" fill="#445964"/>
<path fill-rule="evenodd" clip-rule="evenodd" d="M287.683 188C284.515 186.825 282.243 183.63 282.243 179.872C282.243 176.659 283.904 173.857 286.367 172.378C286.215 171.468 286.135 170.535 286.135 169.586C286.135 159.714 294.657 151.65 305.383 151.127C307.215 147.725 311.071 145.381 315.53 145.381C319.555 145.381 323.088 147.291 325.084 150.164C326.125 150.015 327.193 149.937 328.28 149.937C328.882 149.937 329.479 149.961 330.068 150.008C331.405 148.983 333.048 148.378 334.825 148.378C338.831 148.378 342.16 151.451 342.827 155.493C346.134 158.561 348.274 162.67 348.594 167.228C352.802 168.195 355.954 172.161 355.954 176.909C355.954 181.649 352.813 185.61 348.617 186.586C348.952 187.528 349.135 188.55 349.135 189.616C349.135 194.371 345.498 198.226 341.011 198.226C340.878 198.226 340.746 198.223 340.616 198.216C339.058 201.391 335.926 203.559 332.316 203.559C327.153 203.559 322.967 199.123 322.967 193.652C322.967 190.969 323.975 188.534 325.61 186.75C323.019 186.442 320.582 185.691 318.392 184.583C316.84 185.601 315.123 186.425 313.285 187.016C314.174 188.533 314.688 190.322 314.688 192.239C314.688 197.71 310.502 202.146 305.339 202.146C302.37 202.146 299.725 200.679 298.013 198.393C297.234 198.655 296.404 198.798 295.542 198.798C291.056 198.798 287.418 194.944 287.418 190.189C287.418 189.432 287.511 188.699 287.684 188L287.683 188Z" fill="#3D2829"/>
<path fill-rule="evenodd" clip-rule="evenodd" d="M284.992 186.396C283.309 184.818 282.243 182.481 282.243 179.873C282.243 176.66 283.861 173.858 286.259 172.379C286.111 171.469 286.033 170.536 286.033 169.587C286.033 159.715 294.331 151.651 304.776 151.128C306.559 147.726 310.534 145.382 314.656 145.382C318.779 145.382 322.3 147.204 324.249 150.054C322.247 148.082 319.69 146.921 315.945 146.921C312.2 146.921 307.848 149.265 306.065 152.667C295.619 153.189 287.322 161.254 287.322 171.126C287.322 172.075 287.399 173.008 287.547 173.918C285.149 175.397 283.532 178.199 283.532 181.412C283.532 183.27 284.073 184.99 284.992 186.396L284.992 186.396ZM324.701 150.671C325.71 150.523 326.251 149.937 327.072 149.937C327.893 149.937 328.239 149.961 328.813 150.008C330.115 148.983 331.715 148.378 333.445 148.378C336.107 148.378 338.462 149.81 339.895 152.003C338.51 150.704 336.706 149.917 334.734 149.917C333.004 149.917 331.404 150.522 330.102 151.548C329.528 151.501 328.947 151.476 328.36 151.476C327.302 151.476 326.263 151.554 325.249 151.703C324.932 151.105 325.001 151.11 324.701 150.671ZM348.021 167.596C349.728 168.269 351.196 169.483 352.254 171.047C351.106 169.936 349.698 169.135 348.141 168.768C348.114 168.374 348.074 167.983 348.021 167.596ZM324.953 201.055C323.08 199.241 321.898 196.596 321.898 193.652C321.898 191.51 322.523 189.527 323.585 187.907C324.296 188.071 325.022 188.199 325.76 188.29C324.168 190.073 323.187 192.508 323.187 195.191C323.187 197.386 323.843 199.413 324.953 201.055ZM290.03 196.712C288.348 195.133 287.282 192.797 287.282 190.189C287.282 189.716 287.317 189.253 287.384 188.801C287.839 189.097 288.322 189.346 288.829 189.539C288.661 190.238 288.571 190.971 288.571 191.728C288.571 193.585 289.111 195.305 290.03 196.712Z" fill="#FEFEFE"/>
<path d="M286.983 188.376C285.468 187.702 284.172 186.591 283.237 185.194C282.23 183.689 281.638 181.853 281.638 179.873C281.638 178.187 282.068 176.605 282.817 175.243C283.524 173.957 284.519 172.867 285.708 172.073C285.658 171.727 285.619 171.382 285.591 171.039C285.551 170.556 285.531 170.071 285.531 169.587C285.531 164.488 287.722 159.857 291.295 156.431C294.796 153.073 299.629 150.874 305.021 150.533C306.008 148.836 307.479 147.404 309.265 146.394C311.086 145.362 313.234 144.766 315.53 144.766C317.597 144.766 319.546 145.25 321.243 146.1C322.891 146.925 324.303 148.097 325.357 149.508C325.781 149.454 326.207 149.411 326.636 149.381C327.188 149.342 327.737 149.321 328.279 149.321C328.554 149.321 328.863 149.329 329.202 149.342C329.445 149.352 329.674 149.364 329.89 149.379C330.572 148.885 331.327 148.489 332.133 148.212C332.984 147.921 333.889 147.763 334.825 147.763C336.961 147.763 338.921 148.577 340.441 149.928C341.928 151.251 342.992 153.09 343.385 155.182C345.049 156.758 346.42 158.597 347.417 160.626C348.349 162.523 348.952 164.582 349.16 166.741C351.241 167.324 353.056 168.602 354.367 170.326C355.738 172.129 356.559 174.42 356.559 176.91C356.559 179.396 355.741 181.683 354.374 183.485C353.111 185.151 351.377 186.402 349.385 187.014C349.472 187.328 349.545 187.648 349.6 187.972C349.692 188.508 349.74 189.06 349.74 189.618C349.74 192.158 348.765 194.462 347.19 196.131C345.609 197.806 343.424 198.843 341.01 198.843L341.003 198.84L340.977 198.84C340.139 200.4 338.933 201.713 337.484 202.646C335.976 203.616 334.206 204.176 332.316 204.176C329.564 204.176 327.073 202.994 325.27 201.084C323.473 199.179 322.361 196.551 322.361 193.652C322.361 192.262 322.619 190.93 323.086 189.71C323.433 188.806 323.894 187.963 324.451 187.206C323.518 187.048 322.605 186.834 321.718 186.568C320.575 186.225 319.475 185.795 318.43 185.287C317.718 185.737 316.967 186.151 316.185 186.523C315.525 186.838 314.848 187.12 314.161 187.368C314.472 187.996 314.725 188.664 314.912 189.36C315.16 190.282 315.293 191.248 315.293 192.24C315.293 195.138 314.181 197.766 312.384 199.671C310.581 201.581 308.09 202.763 305.338 202.763C303.788 202.763 302.316 202.385 301.003 201.713C299.77 201.082 298.679 200.188 297.795 199.101C297.497 199.185 297.194 199.253 296.888 199.304C296.441 199.377 295.99 199.415 295.542 199.415C293.128 199.415 290.943 198.378 289.362 196.703C287.787 195.034 286.812 192.73 286.812 190.19C286.812 189.793 286.836 189.399 286.883 189.01C286.91 188.797 286.942 188.585 286.982 188.376H286.983ZM284.235 184.501C285.13 185.84 286.405 186.873 287.889 187.423L288.401 187.614L288.269 188.15C288.188 188.477 288.126 188.814 288.084 189.159C288.044 189.494 288.023 189.838 288.023 190.19C288.023 192.404 288.867 194.406 290.232 195.852C291.591 197.292 293.469 198.184 295.542 198.184C295.944 198.184 296.331 198.152 296.699 198.091C297.086 198.028 297.462 197.934 297.823 197.812L298.232 197.674L298.492 198.021C299.309 199.112 300.354 200.005 301.548 200.616C302.691 201.203 303.978 201.531 305.339 201.531C307.75 201.531 309.934 200.494 311.515 198.82C313.101 197.138 314.083 194.812 314.083 192.24C314.083 191.346 313.967 190.488 313.75 189.683C313.526 188.847 313.192 188.057 312.766 187.333L312.374 186.665L313.102 186.43C314 186.142 314.86 185.801 315.675 185.413C316.503 185.018 317.303 184.568 318.066 184.067L318.353 183.879L318.659 184.033C319.736 184.578 320.873 185.034 322.059 185.389C323.22 185.738 324.43 185.992 325.678 186.141L326.865 186.282L326.052 187.17C325.269 188.024 324.639 189.035 324.212 190.153C323.799 191.229 323.572 192.411 323.572 193.653C323.572 196.225 324.554 198.551 326.14 200.233C327.721 201.907 329.905 202.944 332.316 202.944C333.974 202.944 335.523 202.455 336.842 201.606C338.208 200.727 339.332 199.457 340.075 197.943L340.248 197.589L340.637 197.603L340.834 197.611V197.611L341.011 197.614V197.611C343.084 197.611 344.962 196.72 346.321 195.28C347.685 193.834 348.53 191.831 348.53 189.618C348.53 189.122 348.489 188.641 348.409 188.178C348.327 187.696 348.206 187.233 348.05 186.793L347.819 186.143L348.485 185.988C350.462 185.528 352.192 184.354 353.42 182.735C354.626 181.143 355.349 179.118 355.349 176.91C355.349 174.698 354.624 172.669 353.413 171.077C352.181 169.456 350.445 168.283 348.462 167.828L348.023 167.728L347.991 167.272C347.84 165.11 347.264 163.054 346.34 161.173C345.383 159.225 344.048 157.458 342.421 155.949L342.267 155.806L342.232 155.595C341.92 153.701 340.979 152.036 339.647 150.852C338.344 149.693 336.662 148.995 334.825 148.995C334.016 148.995 333.24 149.129 332.516 149.377C331.765 149.634 331.063 150.016 330.432 150.5L330.248 150.641L330.021 150.622C329.711 150.598 329.422 150.579 329.155 150.569C328.9 150.559 328.608 150.553 328.28 150.553C327.743 150.553 327.222 150.572 326.717 150.607C326.193 150.644 325.676 150.7 325.168 150.773L324.806 150.825L324.593 150.518C323.635 149.139 322.298 147.994 320.714 147.201C319.183 146.435 317.415 145.998 315.531 145.998C313.441 145.998 311.494 146.536 309.851 147.466C308.162 148.422 306.79 149.796 305.914 151.424L305.751 151.725L305.412 151.741C300.183 151.996 295.494 154.091 292.122 157.325C288.787 160.524 286.741 164.84 286.741 169.586C286.741 170.044 286.76 170.495 286.796 170.937C286.835 171.395 286.891 171.843 286.962 172.278L287.031 172.694L286.674 172.908C285.514 173.605 284.544 174.622 283.871 175.844C283.221 177.025 282.849 178.402 282.849 179.873C282.849 181.6 283.362 183.196 284.235 184.501H284.235Z" fill="#573736"/>
<path d="M296.708 156.956C298.196 156.956 299.544 157.579 300.52 158.585C301.493 159.588 302.095 160.971 302.095 162.498C302.095 164.024 301.493 165.408 300.52 166.41C299.544 167.417 298.196 168.04 296.708 168.04C295.221 168.04 293.873 167.417 292.896 166.41C291.923 165.408 291.321 164.024 291.321 162.498C291.321 160.971 291.923 159.588 292.896 158.585C293.873 157.579 295.221 156.956 296.708 156.956ZM299.445 159.661C298.747 158.941 297.779 158.495 296.708 158.495C295.638 158.495 294.67 158.941 293.971 159.661C293.269 160.386 292.833 161.388 292.833 162.498C292.833 163.607 293.269 164.609 293.971 165.334C294.67 166.054 295.638 166.5 296.708 166.5C297.779 166.5 298.747 166.054 299.445 165.334C300.148 164.609 300.583 163.607 300.583 162.498C300.583 161.388 300.148 160.386 299.445 159.661Z" fill="#27AB27"/>
<path fill-rule="evenodd" clip-rule="evenodd" d="M318.819 208.313C328.879 208.313 337.109 199.935 337.109 189.695V181.982C337.109 176.902 333.026 172.747 328.037 172.747H309.602C304.612 172.747 300.529 176.903 300.529 181.982V189.695C300.529 199.935 308.76 208.313 318.819 208.313Z" fill="#FCE3BF"/>
<path fill-rule="evenodd" clip-rule="evenodd" d="M324.279 195.604C324.395 196.067 324.43 196.832 324.256 197.706C324.082 198.579 323.699 199.562 323.239 200.27C322.78 200.978 322.244 201.41 321.629 201.787C321.015 202.164 320.322 202.485 319.314 202.661C318.306 202.837 316.983 202.87 316.211 202.878C315.439 202.886 315.219 202.87 314.976 202.664C314.734 202.458 314.47 202.062 314.439 201.345C314.407 200.628 314.609 199.588 315.214 198.936C315.819 198.284 316.826 198.019 317.928 197.767C319.031 197.514 320.228 197.274 321.076 196.886C321.924 196.499 322.424 195.964 322.717 195.698C323.011 195.43 323.099 195.43 323.24 195.328C323.381 195.225 323.574 195.02 323.77 194.999C323.965 194.977 324.162 195.14 324.278 195.604H324.279Z" fill="#EDCB9C"/>
<path fill-rule="evenodd" clip-rule="evenodd" d="M300.733 192.47C301.531 197.843 304.607 202.484 308.919 205.329C308.936 205.324 308.951 205.319 308.964 205.312C309.175 205.212 309.118 204.949 308.633 204.439C308.15 203.928 307.239 203.169 306.305 201.984C305.371 200.8 304.413 199.19 303.757 197.754C303.101 196.319 302.747 195.057 302.455 194.135C302.164 193.213 301.935 192.631 301.655 192.384C301.41 192.169 301.126 192.21 300.733 192.47Z" fill="#FEFEFE"/>
<path fill-rule="evenodd" clip-rule="evenodd" d="M318.819 208.313C327.985 208.313 335.63 201.358 336.917 192.376C336.727 192.233 336.579 192.125 336.441 192.107C336.145 192.068 335.895 192.443 334.966 194.083C334.037 195.723 332.429 198.629 330.681 200.697C328.932 202.766 327.043 203.997 325.248 204.885C323.452 205.773 321.751 206.318 320.097 206.575C318.443 206.831 316.837 206.799 314.969 206.412C313.102 206.025 310.975 205.283 309.911 204.912C308.847 204.541 308.847 204.541 309.234 205.473L309.266 205.552C312.051 207.3 315.324 208.313 318.819 208.313L318.819 208.313Z" fill="#EDCB9C"/>
<path fill-rule="evenodd" clip-rule="evenodd" d="M337.11 182.631V181.982C337.11 176.902 333.027 172.747 328.037 172.747H309.603C304.613 172.747 300.53 176.902 300.53 181.982V189.695L300.53 189.732C301.475 190.108 302.042 189.636 302.288 189.077C302.574 188.425 302.427 187.653 302.322 186.284C302.218 184.914 302.156 182.949 302.613 181.677C303.071 180.405 304.048 179.828 304.883 179.363C305.717 178.898 306.411 178.545 306.883 178.722C307.355 178.898 307.607 179.604 310.616 180.005C313.625 180.405 319.39 180.502 322.525 180.245C325.659 179.988 326.164 179.379 326.746 178.963C327.329 178.545 327.991 178.321 328.605 178.85C329.22 179.379 329.787 180.662 331.095 181.4C332.404 182.137 334.454 182.33 335.762 182.474C336.331 182.537 336.758 182.591 337.11 182.631Z" fill="#EDCB9C"/>
<path d="M318.819 207.696C323.682 207.696 328.104 205.671 331.309 202.408C334.514 199.145 336.504 194.645 336.504 189.694V181.982C336.504 179.61 335.552 177.455 334.019 175.895L334.016 175.893C332.483 174.332 330.366 173.362 328.037 173.362H309.602C307.272 173.362 305.156 174.332 303.622 175.893L303.62 175.895C302.086 177.455 301.135 179.61 301.135 181.982V189.694C301.135 194.645 303.124 199.145 306.33 202.408C309.535 205.671 313.956 207.696 318.819 207.696ZM332.164 203.278C328.74 206.764 324.016 208.928 318.819 208.928C313.623 208.928 308.899 206.764 305.474 203.278C302.05 199.793 299.924 194.984 299.924 189.694V181.982C299.924 179.275 301.013 176.812 302.767 175.026L302.769 175.024C304.524 173.239 306.943 172.131 309.602 172.131H328.036C330.696 172.131 333.114 173.239 334.869 175.024L334.87 175.025L334.871 175.026C336.625 176.813 337.714 179.275 337.714 181.982V189.694C337.714 194.984 335.588 199.793 332.164 203.278H332.164Z" fill="#573736"/>
<path fill-rule="evenodd" clip-rule="evenodd" d="M314.988 185.194C315.995 185.194 316.81 185.958 316.81 186.901C316.81 187.845 315.995 188.608 314.988 188.608C313.981 188.608 313.165 187.845 313.165 186.901C313.165 185.958 313.981 185.194 314.988 185.194Z" fill="#573736"/>
<path fill-rule="evenodd" clip-rule="evenodd" d="M322.385 185.491C323.392 185.491 324.208 186.256 324.208 187.199C324.208 188.142 323.392 188.906 322.385 188.906C321.378 188.906 320.562 188.142 320.562 187.199C320.562 186.256 321.378 185.491 322.385 185.491Z" fill="#573736"/>
<path fill-rule="evenodd" clip-rule="evenodd" d="M322.289 187.372C322.616 187.372 322.881 187.62 322.881 187.926C322.881 188.233 322.616 188.481 322.289 188.481C321.962 188.481 321.697 188.233 321.697 187.926C321.697 187.62 321.962 187.372 322.289 187.372Z" fill="#FEFEFE"/>
<path fill-rule="evenodd" clip-rule="evenodd" d="M320.762 182.705L328.244 181.658C328.553 181.614 328.84 181.837 328.883 182.151C328.925 182.466 328.707 182.758 328.398 182.802L320.917 183.849C320.608 183.892 320.32 183.67 320.278 183.355C320.235 183.041 320.453 182.748 320.762 182.705Z" fill="#573736"/>
<path fill-rule="evenodd" clip-rule="evenodd" d="M316.369 182.705L308.888 181.658C308.579 181.614 308.291 181.837 308.248 182.151C308.206 182.466 308.425 182.758 308.733 182.802L316.215 183.849C316.523 183.892 316.812 183.67 316.854 183.355C316.897 183.041 316.679 182.748 316.369 182.705Z" fill="#573736"/>
<path fill-rule="evenodd" clip-rule="evenodd" d="M329.39 191.599C331.402 191.599 333.033 193.191 333.033 195.155C333.033 197.118 331.402 198.71 329.39 198.71C327.378 198.71 325.746 197.118 325.746 195.155C325.746 193.191 327.378 191.599 329.39 191.599Z" fill="#E51685" fill-opacity="0.2"/>
<path fill-rule="evenodd" clip-rule="evenodd" d="M307.936 191.599C309.948 191.599 311.579 193.191 311.579 195.155C311.579 197.118 309.948 198.71 307.936 198.71C305.923 198.71 304.292 197.118 304.292 195.155C304.292 193.191 305.923 191.599 307.936 191.599Z" fill="#E51685" fill-opacity="0.2"/>
<path fill-rule="evenodd" clip-rule="evenodd" d="M309.166 167.509H327.619C328.741 167.509 329.659 168.444 329.659 169.586V174.359C329.659 175.502 328.741 176.437 327.619 176.437L309.166 176.436C308.043 176.436 307.125 175.502 307.125 174.359V169.586C307.125 168.444 308.043 167.509 309.166 167.509V167.509Z" fill="#27AB27"/>
<path fill-rule="evenodd" clip-rule="evenodd" d="M309.262 167.509H327.524C328.7 167.509 329.661 168.444 329.661 169.586V170.026C329.378 169.883 329.187 169.697 328.972 169.471C328.719 169.205 328.43 168.884 328.188 168.709C327.946 168.533 327.75 168.503 324.591 168.503C321.433 168.503 315.311 168.533 312.137 168.568C308.963 168.604 308.736 168.643 308.56 168.834C308.385 169.024 308.262 169.365 308.205 170.372C308.148 171.379 308.159 173.053 308.266 174C308.375 174.947 308.581 175.168 308.762 175.393C308.942 175.618 309.097 175.849 309.019 176.06C308.977 176.174 308.866 176.282 308.661 176.352C307.776 176.098 307.125 175.299 307.125 174.359V169.586C307.125 168.444 308.087 167.509 309.262 167.509V167.509Z" fill="#FEFEFE"/>
<path d="M309.262 166.892H327.524C328.284 166.892 328.977 167.196 329.478 167.683L329.481 167.685L329.492 167.697C329.987 168.184 330.294 168.853 330.294 169.586V174.359C330.294 175.1 329.982 175.773 329.481 176.262C328.979 176.749 328.286 177.052 327.524 177.052H309.262C308.502 177.052 307.809 176.749 307.307 176.262L307.305 176.259L307.294 176.248C306.799 175.761 306.492 175.093 306.492 174.359V169.586C306.492 168.847 306.804 168.174 307.307 167.685L307.305 167.684C307.807 167.196 308.5 166.892 309.262 166.892ZM327.524 168.125H309.262C308.849 168.125 308.473 168.289 308.201 168.554L308.2 168.553L308.198 168.554C307.927 168.817 307.759 169.183 307.759 169.586V174.359C307.759 174.761 307.927 175.126 308.198 175.392L308.2 175.394C308.472 175.657 308.849 175.821 309.262 175.821H327.524C327.937 175.821 328.313 175.656 328.586 175.391C328.858 175.126 329.027 174.761 329.027 174.359V169.586C329.027 169.184 328.859 168.819 328.588 168.554L328.586 168.552C328.313 168.288 327.937 168.124 327.524 168.124V168.125Z" fill="#573736"/>
<path d="M291.425 175.031C292.913 175.031 294.261 175.654 295.237 176.661C296.21 177.664 296.812 179.048 296.812 180.574C296.812 182.1 296.21 183.484 295.237 184.487C294.261 185.493 292.913 186.116 291.425 186.116C289.938 186.116 288.589 185.493 287.613 184.487C286.64 183.484 286.038 182.1 286.038 180.574C286.038 179.048 286.64 177.664 287.613 176.661C288.589 175.654 289.938 175.031 291.425 175.031ZM294.162 177.737C293.463 177.018 292.495 176.571 291.425 176.571C290.355 176.571 289.387 177.018 288.688 177.737C287.985 178.462 287.55 179.465 287.55 180.574C287.55 181.683 287.985 182.686 288.688 183.41C289.387 184.13 290.355 184.577 291.425 184.577C292.495 184.577 293.463 184.13 294.162 183.41C294.865 182.686 295.3 181.683 295.3 180.574C295.3 179.465 294.865 178.462 294.162 177.737Z" fill="#27AB27"/>
<path d="M346.938 172.209C348.426 172.209 349.774 172.832 350.751 173.838C351.723 174.841 352.326 176.225 352.326 177.751C352.326 179.277 351.723 180.661 350.751 181.664C349.774 182.67 348.426 183.293 346.938 183.293C345.451 183.293 344.103 182.67 343.126 181.664C342.154 180.661 341.551 179.277 341.551 177.751C341.551 176.225 342.154 174.841 343.126 173.838C344.103 172.832 345.451 172.209 346.938 172.209ZM349.675 174.915C348.976 174.195 348.008 173.749 346.938 173.749C345.868 173.749 344.9 174.195 344.201 174.915C343.499 175.639 343.064 176.642 343.064 177.751C343.064 178.86 343.499 179.863 344.201 180.587C344.9 181.307 345.868 181.754 346.938 181.754C348.008 181.754 348.976 181.307 349.675 180.587C350.378 179.863 350.813 178.86 350.813 177.751C350.813 176.642 350.378 175.639 349.675 174.915Z" fill="#27AB27"/>
<path d="M334.533 151.993C336.021 151.993 337.369 152.616 338.346 153.623C339.318 154.625 339.92 156.009 339.92 157.535C339.92 159.061 339.318 160.445 338.346 161.448C337.369 162.454 336.021 163.077 334.533 163.077C333.046 163.077 331.698 162.454 330.721 161.448C329.748 160.445 329.146 159.061 329.146 157.535C329.146 156.009 329.748 154.625 330.721 153.623C331.698 152.616 333.046 151.993 334.533 151.993ZM337.27 154.699C336.571 153.979 335.604 153.532 334.533 153.532C333.463 153.532 332.495 153.979 331.796 154.699C331.093 155.423 330.658 156.426 330.658 157.535C330.658 158.644 331.093 159.647 331.796 160.371C332.495 161.091 333.463 161.537 334.533 161.537C335.604 161.537 336.571 161.091 337.27 160.371C337.973 159.647 338.408 158.644 338.408 157.535C338.408 156.426 337.973 155.423 337.27 154.699Z" fill="#27AB27"/>
<path fill-rule="evenodd" clip-rule="evenodd" d="M310.082 164.793H326.525V174.703C326.525 176.396 325.164 177.782 323.501 177.782H313.106C311.443 177.782 310.082 176.396 310.082 174.703V164.793Z" fill="#3D2829"/>
<path fill-rule="evenodd" clip-rule="evenodd" d="M313.917 177.781H313.108C311.445 177.781 310.084 176.396 310.084 174.702V166.885C310.231 166.892 310.366 166.892 310.488 166.892H311.046C311.148 166.892 311.148 166.892 311.14 167.602C311.133 168.312 311.117 169.733 311.109 171.068C311.101 172.404 311.101 173.654 311.124 174.432C311.148 175.21 311.196 175.514 311.366 175.884C311.537 176.252 311.831 176.685 312.257 176.89C312.682 177.096 313.238 177.073 313.587 177.184C313.873 177.274 314.019 177.453 313.917 177.78V177.781Z" fill="#FEFEFE"/>
<path d="M326.979 166.892V174.703C326.979 175.675 326.587 176.561 325.957 177.202L325.957 177.203L325.956 177.204C325.325 177.845 324.456 178.244 323.501 178.244L313.106 178.244C312.149 178.244 311.279 177.846 310.65 177.204C310.02 176.563 309.629 175.677 309.629 174.703V166.893L310.536 166.892V174.703C310.536 175.422 310.826 176.077 311.291 176.551C311.757 177.025 312.4 177.32 313.106 177.32L323.501 177.32C324.208 177.32 324.851 177.026 325.315 176.553L325.317 176.551C325.782 176.078 326.071 175.423 326.071 174.703V166.893L326.978 166.892H326.979Z" fill="#573736"/>
<path fill-rule="evenodd" clip-rule="evenodd" d="M298.108 185.566C301.114 185.566 303.552 188.07 303.552 191.159C303.552 194.249 301.114 196.753 298.108 196.753C295.101 196.753 292.664 194.249 292.664 191.159C292.664 188.07 295.101 185.566 298.108 185.566Z" fill="#3D2829"/>
<path d="M299.927 185.399C300.824 185.698 301.627 186.211 302.278 186.88C303.345 187.976 304.005 189.49 304.005 191.16C304.005 192.83 303.345 194.344 302.278 195.44C301.942 195.786 301.565 196.09 301.156 196.344C301.086 196.106 300.994 195.793 300.894 195.419C301.161 195.235 301.409 195.024 301.636 194.791C302.539 193.863 303.098 192.579 303.098 191.16C303.098 189.741 302.539 188.457 301.636 187.53C301.157 187.037 300.581 186.644 299.939 186.384C299.933 186.038 299.929 185.708 299.927 185.399Z" fill="#573736"/>
<path fill-rule="evenodd" clip-rule="evenodd" d="M339.181 185.682C342.187 185.682 344.625 188.187 344.625 191.276C344.625 194.365 342.187 196.869 339.181 196.869C336.174 196.869 333.737 194.365 333.737 191.276C333.737 188.187 336.175 185.682 339.181 185.682Z" fill="#3D2829"/>
<path d="M336.39 196.61C335.88 196.329 335.415 195.972 335.009 195.555C333.943 194.459 333.282 192.945 333.282 191.275C333.282 189.605 333.943 188.091 335.009 186.995C335.734 186.251 336.646 185.699 337.666 185.422C337.704 185.681 337.745 186.05 337.72 186.403C336.974 186.657 336.194 187.087 335.651 187.645C334.748 188.572 334.189 189.856 334.189 191.275C334.189 192.694 334.748 193.978 335.651 194.906C335.924 195.186 336.436 195.591 336.766 195.8C336.72 196.126 336.461 196.289 336.39 196.61Z" fill="#573736"/>
<path fill-rule="evenodd" clip-rule="evenodd" d="M336.249 169.23C339.255 169.23 341.693 171.734 341.693 174.823C341.693 177.913 339.255 180.417 336.249 180.417C333.242 180.417 330.805 177.913 330.805 174.823C330.805 171.734 333.243 169.23 336.249 169.23Z" fill="#3D2829"/>
<path d="M337.617 180.715C337.178 180.823 336.72 180.879 336.249 180.879C334.621 180.879 333.147 180.2 332.079 179.104C331.012 178.007 330.352 176.493 330.352 174.823C330.352 174.017 330.506 173.248 330.785 172.544C331.078 172.606 331.381 172.678 331.676 172.765C331.408 173.394 331.259 174.091 331.259 174.823C331.259 176.243 331.818 177.526 332.721 178.454C333.623 179.382 334.871 179.956 336.249 179.956C336.672 179.956 337.083 179.901 337.476 179.8C337.513 180.102 337.563 180.385 337.617 180.715Z" fill="#573736"/>
<path fill-rule="evenodd" clip-rule="evenodd" d="M300.542 169.037C303.298 169.037 305.533 171.333 305.533 174.164C305.533 176.996 303.299 179.292 300.542 179.292C297.786 179.292 295.552 176.996 295.552 174.164C295.552 171.333 297.786 169.037 300.542 169.037Z" fill="#3D2829"/>
<path d="M305.846 172.895C305.939 173.303 305.988 173.729 305.988 174.166C305.988 175.707 305.378 177.105 304.393 178.117C303.408 179.129 302.046 179.755 300.543 179.755C300.438 179.755 300.334 179.752 300.229 179.747C300.29 179.524 300.34 179.319 300.379 179.175C300.431 178.982 300.465 178.898 300.536 178.832L300.543 178.832C301.796 178.832 302.931 178.31 303.751 177.467C304.572 176.624 305.08 175.456 305.08 174.166C305.08 173.836 305.047 173.514 304.984 173.204C305.212 173.105 305.431 173.035 305.611 172.975L305.846 172.895V172.895Z" fill="#573736"/>
<path fill-rule="evenodd" clip-rule="evenodd" d="M314.812 195.43H323.769C323.769 198.861 321.012 201.667 317.642 201.667H314.812V195.43H314.812Z" fill="#FEFEFE"/>
<path d="M314.812 194.814H323.769C324.103 194.814 324.375 195.09 324.375 195.429C324.375 197.311 323.617 199.024 322.397 200.267L322.394 200.271C321.173 201.512 319.49 202.282 317.642 202.282L314.812 202.282C314.478 202.282 314.207 202.006 314.207 201.666V195.43C314.207 195.09 314.478 194.814 314.812 194.814L314.812 194.814ZM323.131 196.046H315.417V201.05H317.643C319.163 201.05 320.543 200.419 321.542 199.401L321.544 199.399C322.41 198.518 322.991 197.347 323.131 196.046H323.131Z" fill="#573736"/>
<path fill-rule="evenodd" clip-rule="evenodd" d="M314.92 187.067C315.247 187.067 315.512 187.316 315.512 187.622C315.512 187.928 315.247 188.177 314.92 188.177C314.592 188.177 314.327 187.928 314.327 187.622C314.327 187.316 314.592 187.067 314.92 187.067Z" fill="#FEFEFE"/>
</svg>
